# This file uses centimeters as units for non-parametric coordinates.

mtllib Circle.mtl
g default
v 11.123584 0.003270 -3.614271
v 9.462286 0.003270 -6.874753
v 6.874753 0.003270 -9.462285
v 3.614271 0.003270 -11.123583
v 0.000000 0.003270 -11.696026
v -3.614271 0.003270 -11.123583
v -6.874751 0.003270 -9.462283
v -9.462283 0.003270 -6.874751
v -11.123581 0.003270 -3.614270
v -11.696024 0.003270 0.000000
v -11.123581 0.003270 3.614270
v -9.462282 0.003270 6.874750
v -6.874750 0.003270 9.462282
v -3.614270 0.003270 11.123579
v -0.000000 0.003270 11.696022
v 3.614269 0.003270 11.123578
v 6.874749 0.003270 9.462280
v 9.462280 0.003270 6.874749
v 11.123578 0.003270 3.614269
v 11.696021 0.003270 0.000000
v -0.000001 0.003270 -0.000001
vt 0.872181 0.620929
vt 0.816596 0.730020
vt 0.500000 0.500000
vt 0.730020 0.816595
vt 0.620929 0.872180
vt 0.500000 0.891333
vt 0.379071 0.872180
vt 0.269980 0.816595
vt 0.183405 0.730020
vt 0.127820 0.620929
vt 0.108667 0.500000
vt 0.127820 0.379071
vt 0.183405 0.269980
vt 0.269980 0.183404
vt 0.379071 0.127820
vt 0.500000 0.108667
vt 0.620929 0.127820
vt 0.730020 0.183404
vt 0.816595 0.269980
vt 0.872180 0.379071
vt 0.891333 0.500000
vn 0.000000 1.000000 0.000000
vn 0.000000 1.000000 0.000000
vn -0.000000 1.000000 -0.000000
vn 0.000000 1.000000 -0.000000
vn 0.000000 1.000000 -0.000000
vn 0.000000 1.000000 -0.000000
vn -0.000000 1.000000 -0.000000
vn -0.000000 1.000000 -0.000000
vn -0.000000 1.000000 -0.000000
vn -0.000000 1.000000 -0.000000
vn -0.000000 1.000000 0.000000
vn -0.000000 1.000000 0.000000
vn -0.000000 1.000000 0.000000
vn -0.000000 1.000000 0.000000
vn -0.000000 1.000000 0.000000
vn 0.000000 1.000000 0.000000
vn 0.000000 1.000000 0.000000
vn 0.000000 1.000000 0.000000
vn 0.000000 1.000000 0.000000
vn 0.000000 1.000000 -0.000000
vn 0.000000 1.000000 -0.000000
s 1
g pCylinder2
usemtl initialShadingGroup
f 1/1/1 2/2/2 21/3/3
f 2/2/2 3/4/4 21/3/3
f 3/4/4 4/5/5 21/3/3
f 4/5/5 5/6/6 21/3/3
f 5/6/6 6/7/7 21/3/3
f 6/7/7 7/8/8 21/3/3
f 7/8/8 8/9/9 21/3/3
f 8/9/9 9/10/10 21/3/3
f 9/10/10 10/11/11 21/3/3
f 10/11/11 11/12/12 21/3/3
f 11/12/12 12/13/13 21/3/3
f 12/13/13 13/14/14 21/3/3
f 13/14/14 14/15/15 21/3/3
f 14/15/15 15/16/16 21/3/3
f 15/16/16 16/17/17 21/3/3
f 16/17/17 17/18/18 21/3/3
f 17/18/18 18/19/19 21/3/3
f 18/19/19 19/20/20 21/3/3
f 19/20/20 20/21/21 21/3/3
f 20/21/21 1/1/1 21/3/3