# This file uses centimeters as units for non-parametric coordinates.

mtllib stone_02.mtl
g default
v -7.657469 -8.852220 6.606017
v -2.050510 -9.662189 10.072203
v 2.994678 -8.984034 8.984034
v 9.008839 -11.044027 8.934158
v -8.984034 -2.994678 8.984034
v -2.994678 -2.994678 8.984034
v 3.277625 -2.994678 10.819262
v 9.008839 -5.054670 8.934158
v -7.389595 2.994678 6.861475
v -2.994678 2.994678 7.054922
v 2.301717 2.994678 11.966068
v 10.265294 2.994678 10.556230
v -8.675825 6.974942 6.372237
v -2.994678 10.168293 6.321359
v 3.258767 6.850217 9.226412
v 8.719946 4.564119 8.319960
v -8.984034 8.984034 2.994678
v -2.775390 11.673747 2.162946
v 3.258767 9.057830 3.658754
v 8.719946 6.771732 2.752299
v -9.403080 8.984034 -2.157146
v -2.775390 14.886187 -3.826411
v 3.213966 11.673747 -3.826411
v 6.108205 8.405836 -2.994678
v -6.035301 8.984034 -6.714096
v -2.994678 7.620310 -7.655631
v 2.111870 6.952037 -7.747883
v 5.406825 6.685417 -4.949470
v -7.475199 2.994678 -10.835134
v -1.693292 2.994678 -10.070528
v 1.290459 2.994678 -8.100652
v 7.606332 2.994678 -6.906163
v -8.984034 -2.994678 -8.984034
v -2.993577 -4.223162 -14.301968
v 2.994678 -2.994678 -8.984034
v 6.354760 -2.994678 -5.921235
v -7.906586 -8.984034 -6.835340
v -2.994678 -8.984034 -8.984034
v 2.994678 -8.984034 -8.984034
v 4.643545 -8.984034 -5.818436
v -6.280026 -11.526184 -2.442877
v -2.994678 -13.061986 -2.994678
v 2.994678 -13.061986 -2.994678
v 8.984034 -8.984034 -2.994678
v -8.984034 -8.984034 2.994678
v -2.588130 -15.675901 2.032765
v 2.994678 -13.061986 2.994678
v 8.984034 -8.984034 2.994678
v 8.984034 -2.994678 -2.994678
v 12.660633 -3.378794 3.084174
v 8.984034 2.994678 -2.994678
v 11.266443 2.994678 3.159546
v -15.753089 -2.643730 -3.818483
v -17.416548 -2.469938 2.130382
v -16.835102 3.843962 -4.851994
v -15.218205 3.843962 2.322444
vt 0.384550 0.464757
vt 0.460090 0.475265
vt 0.449249 0.581270
vt 0.386929 0.590644
vt 0.515338 0.486661
vt 0.509795 0.594930
vt 0.558602 0.494301
vt 0.558602 0.569969
vt 0.447536 0.735863
vt 0.389209 0.724728
vt 0.497896 0.699278
vt 0.555944 0.688564
vt 0.446655 0.871672
vt 0.372564 0.797097
vt 0.516563 0.774430
vt 0.560816 0.720752
vt 0.442237 0.955511
vt 0.334818 0.853339
vt 0.560720 0.860269
vt 0.605218 0.773755
vt 0.095214 0.978930
vt 0.250048 0.864606
vt 0.671809 0.832994
vt 0.088740 0.856140
vt 0.147680 0.872163
vt 0.700803 0.807256
vt 0.135878 0.714312
vt 0.709186 0.710814
vt 0.082953 0.573286
vt 0.162012 0.581628
vt 0.706390 0.579943
vt 0.086804 0.441062
vt 0.170621 0.442237
vt 0.716835 0.449684
vt 0.116606 0.298892
vt 0.228811 0.347729
vt 0.665457 0.486882
vt 0.448658 0.312379
vt 0.334818 0.440567
vt 0.566631 0.381327
vt 0.603815 0.492650
vt 0.665457 0.588049
vt 0.612945 0.596143
vt 0.665457 0.710859
vt 0.609133 0.697838
vt 0.243318 0.602228
vt 0.293002 0.609348
vt 0.236813 0.708537
vt 0.298979 0.716160
vt 0.853765 0.978930
vt 0.626721 0.215830
vt 0.462130 0.193781
vt 0.699788 0.906517
vt 0.847291 0.856140
vt 0.894430 0.714312
vt 0.906231 0.872163
vt 0.763560 0.821580
vt 0.826583 0.729299
vt 0.841504 0.573286
vt 0.920563 0.581628
vt 0.777093 0.740188
vt 0.763147 0.577098
vt 0.845356 0.441062
vt 0.763147 0.464010
vt 0.875158 0.298892
vt 0.685779 0.364116
vt 0.462130 0.035003
vt 0.637830 0.079255
vt 0.302164 0.233435
vt 0.303352 0.035003
vt 0.555038 0.071681
vt 0.467943 0.057052
vt 0.457165 0.190330
vt 0.626721 0.215830
vt 0.309165 0.057052
vt 0.309165 0.215830
vt 0.711330 0.087750
vt 0.867988 0.087750
vt 0.868637 0.230478
vt 0.711330 0.231677
vn -0.174474 0.134489 0.975434
vn -0.264234 0.019539 0.964261
vn -0.311238 -0.134190 0.940810
vn 0.000000 -0.027069 0.999634
vn 0.031213 -0.107866 0.993675
vn -0.005881 -0.241208 0.970456
vn 0.008293 0.000000 0.999966
vn 0.167817 -0.188472 0.967634
vn -0.027949 0.245834 0.968909
vn -0.353415 0.231158 0.906457
vn -0.199604 0.195446 0.960187
vn 0.199365 0.112195 0.973481
vn -0.047330 0.102860 0.993569
vn -0.232075 0.098951 0.967652
vn -0.214128 0.414033 0.884718
vn 0.185714 0.740648 0.645718
vn -0.423413 0.761103 0.491369
vn 0.020165 0.927516 0.373239
vn -0.402632 0.888437 0.220380
vn -0.062647 0.929198 0.364233
vn 0.367554 0.864523 0.342789
vn 0.380180 0.878579 0.289070
vn 0.410603 0.847615 0.336085
vn 0.407704 0.885356 0.223434
vn -0.589551 0.807704 -0.006644
vn -0.077683 0.980311 -0.181540
vn 0.495213 0.832518 -0.248352
vn 0.641658 0.766966 0.006176
vn -0.447272 0.580105 -0.680754
vn 0.107641 0.508476 -0.854322
vn 0.250557 0.583248 -0.772686
vn 0.621377 0.421809 -0.660279
vn -0.000785 0.566970 -0.823738
vn 0.049921 0.511874 -0.857609
vn -0.205929 0.329848 -0.921300
vn 0.303592 0.413090 -0.858597
vn 0.424803 0.166460 -0.889850
vn 0.384233 0.207673 -0.899576
vn 0.300991 0.402452 -0.864544
vn 0.287423 0.251597 -0.924168
vn 0.058448 -0.257112 -0.964612
vn -0.621341 -0.308420 -0.720287
vn 0.549610 -0.044513 -0.834235
vn 0.655649 -0.229670 -0.719288
vn -0.079288 -0.568141 -0.819103
vn -0.372013 -0.372012 -0.850420
vn 0.382863 0.000000 -0.923805
vn 0.797135 -0.095651 -0.596177
vn -0.095979 -0.822777 -0.560201
vn -0.147198 -0.855618 -0.496236
vn -0.276102 -0.813951 -0.511127
vn -0.617130 -0.766939 -0.175941
vn 0.124249 -0.820188 -0.558439
vn 0.325323 -0.887056 -0.327561
vn 0.575693 -0.609892 -0.544618
vn 0.554985 -0.815116 -0.166063
vn -0.159434 -0.957112 0.241906
vn -0.706115 -0.694637 0.137405
vn 0.433928 -0.841990 0.320561
vn 0.388711 -0.916263 0.096778
vn -0.537510 -0.707170 0.459340
vn -0.109659 -0.797055 0.593867
vn 0.214112 -0.902517 0.373657
vn -0.310345 -0.898539 -0.310345
vn 0.537590 -0.167778 -0.826346
vn 0.737136 -0.094286 -0.669135
vn 0.919111 -0.058685 -0.389603
vn 0.869702 -0.060201 -0.489892
vn 0.944462 -0.325994 -0.041465
vn 0.978505 -0.195659 -0.065163
vn 0.999991 0.000000 -0.004176
vn 0.901499 -0.262855 0.343813
vn 0.910247 0.197232 -0.364073
vn 0.938495 0.099795 -0.330557
vn 0.941830 0.314985 -0.117222
vn 0.944758 0.103946 0.310851
vn 0.745309 0.474101 -0.468767
vn 0.824788 0.438344 -0.357182
vn 0.843796 0.520658 -0.130092
vn 0.708389 0.691977 0.139116
vn -0.677428 -0.732648 -0.065711
vn -0.807800 -0.451164 -0.379354
vn -0.664959 -0.638732 -0.387106
vn -0.570320 -0.239635 -0.785691
vn -0.667852 -0.704619 0.239761
vn -0.878123 -0.320044 0.355629
vn -0.880211 -0.335580 0.335580
vn -0.610273 -0.174109 0.772821
vn -0.780323 0.440073 -0.444332
vn -0.513562 0.363391 -0.777303
vn -0.735850 0.459963 0.496950
vn -0.458229 0.388541 0.799413
vn -0.519716 0.793163 -0.317471
vn -0.688909 0.515934 -0.509133
vn -0.618096 0.606363 0.500281
vn -0.942756 -0.317277 -0.102699
s 1
g pasted__pCube2 group
usemtl initialShadingGroup
f 2/2/1 6/3/2 1/1/3
f 1/1/3 6/3/2 5/4/4
f 2/2/1 3/5/5 6/3/2
f 6/3/2 3/5/5 7/6/6
f 4/7/7 8/8/8 3/5/5
f 3/5/5 8/8/8 7/6/6
f 5/4/4 6/3/2 9/10/9
f 9/10/9 6/3/2 10/9/10
f 7/6/6 11/11/11 6/3/2
f 6/3/2 11/11/11 10/9/10
f 8/8/8 12/12/12 7/6/6
f 7/6/6 12/12/12 11/11/11
f 9/10/9 10/9/10 13/14/13
f 13/14/13 10/9/10 14/13/14
f 11/11/11 15/15/15 10/9/10
f 10/9/10 15/15/15 14/13/14
f 12/12/12 16/16/16 11/11/11
f 11/11/11 16/16/16 15/15/15
s 2
f 13/14/17 14/13/18 17/18/19
f 17/18/19 14/13/18 18/17/20
f 15/15/21 19/19/22 14/13/18
f 14/13/18 19/19/22 18/17/20
f 15/15/21 16/16/23 19/19/22
f 19/19/22 16/16/23 20/20/24
f 17/51/19 18/52/20 21/68/25
f 21/68/25 18/52/20 22/67/26
f 19/69/22 23/70/27 18/52/20
f 18/52/20 23/70/27 22/67/26
f 20/20/24 24/23/28 19/19/22
f 19/19/22 24/23/28 23/53/27
f 21/22/25 22/21/26 25/25/29
f 25/25/29 22/21/26 26/24/30
f 22/50/26 23/53/27 26/54/30
f 26/54/30 23/53/27 27/57/31
f 24/23/28 28/26/32 23/53/27
f 23/53/27 28/26/32 27/57/31
s 4
f 25/56/33 26/54/34 29/55/35
f 29/55/35 26/54/34 30/58/36
f 26/54/34 27/57/37 30/58/36
f 30/58/36 27/57/37 31/61/38
f 27/57/37 28/26/39 31/61/38
f 31/61/38 28/26/39 32/28/40
f 30/58/36 34/59/41 29/55/35
f 29/55/35 34/59/41 33/60/42
f 31/61/38 35/62/43 30/58/36
f 30/58/36 35/62/43 34/59/41
f 31/61/38 32/28/40 35/62/43
f 35/62/43 32/28/40 36/31/44
f 34/29/41 38/32/45 33/30/42
f 33/30/42 38/32/45 37/33/46
f 34/59/41 35/62/43 38/63/45
f 38/63/45 35/62/43 39/64/47
f 36/31/44 40/34/48 35/62/43
f 35/62/43 40/34/48 39/64/47
s 5
f 38/32/49 42/35/50 37/33/51
f 37/33/51 42/35/50 41/36/52
f 38/63/49 39/64/53 42/65/50
f 42/65/50 39/64/53 43/66/54
f 39/64/53 40/34/55 43/66/54
f 43/66/54 40/34/55 44/37/56
f 42/72/50 46/73/57 41/71/52
f 41/71/52 46/73/57 45/74/58
f 42/72/50 43/75/54 46/73/57
f 46/73/57 43/75/54 47/76/59
f 43/66/54 44/37/56 47/40/59
f 47/40/59 44/37/56 48/41/60
f 45/39/58 46/38/57 1/1/61
f 1/1/61 46/38/57 2/2/62
f 46/38/57 47/40/59 2/2/62
f 2/2/62 47/40/59 3/5/63
f 47/77/59 48/78/60 3/80/63
f 3/80/63 48/78/60 4/79/64
s 6
f 40/34/65 36/31/66 44/37/67
f 44/37/67 36/31/66 49/42/68
f 44/37/67 49/42/68 48/41/69
f 48/41/69 49/42/68 50/43/70
f 4/7/71 48/41/69 8/8/72
f 8/8/72 48/41/69 50/43/70
f 49/42/68 36/31/66 51/44/73
f 51/44/73 36/31/66 32/28/74
f 50/43/70 49/42/68 52/45/75
f 52/45/75 49/42/68 51/44/73
f 8/8/72 50/43/70 12/12/76
f 12/12/76 50/43/70 52/45/75
f 32/28/74 28/26/77 51/44/73
f 51/44/73 28/26/77 24/23/78
f 52/45/75 51/44/73 20/20/79
f 20/20/79 51/44/73 24/23/78
f 12/12/76 52/45/75 16/16/80
f 16/16/80 52/45/75 20/20/79
s 7
f 41/36/81 53/46/82 37/33/83
f 37/33/83 53/46/82 33/30/84
f 41/36/81 45/39/85 53/46/82
f 53/46/82 45/39/85 54/47/86
f 1/1/87 5/4/88 45/39/85
f 45/39/85 5/4/88 54/47/86
f 53/46/82 55/48/89 33/30/84
f 33/30/84 55/48/89 29/27/90
f 54/47/86 56/49/91 53/46/82
f 53/46/82 56/49/91 55/48/89
f 54/47/86 5/4/88 56/49/91
f 56/49/91 5/4/88 9/10/92
f 55/48/89 21/22/93 29/27/90
f 29/27/90 21/22/93 25/25/94
f 55/48/89 56/49/91 21/22/93
f 21/22/93 56/49/91 17/18/95
f 56/49/91 9/10/92 17/18/95
f 17/18/95 9/10/92 13/14/96
g default
v -7.657469 -8.852220 6.606017
v -2.050510 -9.662189 10.072203
v 2.994678 -8.984034 8.984034
v 9.008839 -11.044027 8.934158
v -8.984034 -2.994678 8.984034
v -2.994678 -2.994678 8.984034
v 3.277625 -2.994678 10.819262
v 9.008839 -5.054670 8.934158
v -7.389595 2.994678 6.861475
v -2.994678 2.994678 7.054922
v 2.301717 2.994678 11.966068
v 10.265294 2.994678 10.556230
v -8.675825 6.974942 6.372237
v -2.994678 10.168293 6.321359
v 3.258767 6.850217 9.226412
v 8.719946 4.564119 8.319960
v -8.984034 8.984034 2.994678
v -2.775390 11.673747 2.162946
v 3.258767 9.057830 3.658754
v 8.719946 6.771732 2.752299
v -9.403080 8.984034 -2.157146
v -2.775390 14.886187 -3.826411
v 3.213966 11.673747 -3.826411
v 6.108205 8.405836 -2.994678
v -6.035301 8.984034 -6.714096
v -2.994678 7.620310 -7.655631
v 2.111870 6.952037 -7.747883
v 5.406825 6.685417 -4.949470
v -7.475199 2.994678 -10.835134
v -1.693292 2.994678 -10.070528
v 1.290459 2.994678 -8.100652
v 7.606332 2.994678 -6.906163
v -8.984034 -2.994678 -8.984034
v -2.993577 -4.223162 -14.301968
v 2.994678 -2.994678 -8.984034
v 6.354760 -2.994678 -5.921235
v -7.906586 -8.984034 -6.835340
v -2.994678 -8.984034 -8.984034
v 2.994678 -8.984034 -8.984034
v 4.643545 -8.984034 -5.818436
v -6.280026 -11.526184 -2.442877
v -2.994678 -13.061986 -2.994678
v 2.994678 -13.061986 -2.994678
v 8.984034 -8.984034 -2.994678
v -8.984034 -8.984034 2.994678
v -2.588130 -15.675901 2.032765
v 2.994678 -13.061986 2.994678
v 8.984034 -8.984034 2.994678
v 8.984034 -2.994678 -2.994678
v 12.660633 -3.378794 3.084174
v 8.984034 2.994678 -2.994678
v 11.266443 2.994678 3.159546
v -15.753089 -2.643730 -3.818483
v -17.416548 -2.469938 2.130382
v -16.835102 3.843962 -4.851994
v -15.218205 3.843962 2.322444
vt 0.384550 0.464757
vt 0.460090 0.475265
vt 0.449249 0.581270
vt 0.386929 0.590644
vt 0.515338 0.486661
vt 0.509795 0.594930
vt 0.558602 0.494301
vt 0.558602 0.569969
vt 0.447536 0.735863
vt 0.389209 0.724728
vt 0.497896 0.699278
vt 0.555944 0.688564
vt 0.446655 0.871672
vt 0.372564 0.797097
vt 0.516563 0.774430
vt 0.560816 0.720752
vt 0.442237 0.955511
vt 0.334818 0.853339
vt 0.560720 0.860269
vt 0.605218 0.773755
vt 0.095214 0.978930
vt 0.250048 0.864606
vt 0.671809 0.832994
vt 0.088740 0.856140
vt 0.147680 0.872163
vt 0.700803 0.807256
vt 0.135878 0.714312
vt 0.709186 0.710814
vt 0.082953 0.573286
vt 0.162012 0.581628
vt 0.706390 0.579943
vt 0.086804 0.441062
vt 0.170621 0.442237
vt 0.716835 0.449684
vt 0.116606 0.298892
vt 0.228811 0.347729
vt 0.665457 0.486882
vt 0.448658 0.312379
vt 0.334818 0.440567
vt 0.566631 0.381327
vt 0.603815 0.492650
vt 0.665457 0.588049
vt 0.612945 0.596143
vt 0.665457 0.710859
vt 0.609133 0.697838
vt 0.243318 0.602228
vt 0.293002 0.609348
vt 0.236813 0.708537
vt 0.298979 0.716160
vt 0.853765 0.978930
vt 0.626721 0.215830
vt 0.462130 0.193781
vt 0.699788 0.906517
vt 0.847291 0.856140
vt 0.894430 0.714312
vt 0.906231 0.872163
vt 0.763560 0.821580
vt 0.826583 0.729299
vt 0.841504 0.573286
vt 0.920563 0.581628
vt 0.777093 0.740188
vt 0.763147 0.577098
vt 0.845356 0.441062
vt 0.763147 0.464010
vt 0.875158 0.298892
vt 0.685779 0.364116
vt 0.462130 0.035003
vt 0.637830 0.079255
vt 0.302164 0.233435
vt 0.303352 0.035003
vt 0.555038 0.071681
vt 0.467943 0.057052
vt 0.457165 0.190330
vt 0.626721 0.215830
vt 0.309165 0.057052
vt 0.309165 0.215830
vt 0.711330 0.087750
vt 0.867988 0.087750
vt 0.868637 0.230478
vt 0.711330 0.231677
vn -0.174474 0.134489 0.975434
vn -0.264234 0.019539 0.964261
vn -0.311238 -0.134190 0.940810
vn 0.000000 -0.027069 0.999634
vn 0.031213 -0.107866 0.993675
vn -0.005881 -0.241208 0.970456
vn 0.008293 0.000000 0.999966
vn 0.167817 -0.188472 0.967634
vn -0.027949 0.245834 0.968909
vn -0.353415 0.231158 0.906457
vn -0.199604 0.195446 0.960187
vn 0.199365 0.112195 0.973481
vn -0.047330 0.102860 0.993569
vn -0.232075 0.098951 0.967652
vn -0.214128 0.414033 0.884718
vn 0.185714 0.740648 0.645718
vn -0.423413 0.761103 0.491369
vn 0.020165 0.927516 0.373239
vn -0.402632 0.888437 0.220380
vn -0.062647 0.929198 0.364233
vn 0.367554 0.864523 0.342789
vn 0.380180 0.878579 0.289070
vn 0.410603 0.847615 0.336085
vn 0.407704 0.885356 0.223434
vn -0.589551 0.807704 -0.006644
vn -0.077683 0.980311 -0.181540
vn 0.495213 0.832518 -0.248352
vn 0.641658 0.766966 0.006176
vn -0.447272 0.580105 -0.680754
vn 0.107641 0.508476 -0.854322
vn 0.250557 0.583248 -0.772686
vn 0.621377 0.421809 -0.660279
vn -0.000785 0.566970 -0.823738
vn 0.049921 0.511874 -0.857609
vn -0.205929 0.329848 -0.921300
vn 0.303592 0.413090 -0.858597
vn 0.424803 0.166460 -0.889850
vn 0.384233 0.207673 -0.899576
vn 0.300991 0.402452 -0.864544
vn 0.287423 0.251597 -0.924168
vn 0.058448 -0.257112 -0.964612
vn -0.621341 -0.308420 -0.720287
vn 0.549610 -0.044513 -0.834235
vn 0.655649 -0.229670 -0.719288
vn -0.079288 -0.568141 -0.819103
vn -0.372013 -0.372012 -0.850420
vn 0.382863 0.000000 -0.923805
vn 0.797135 -0.095651 -0.596177
vn -0.095979 -0.822777 -0.560201
vn -0.147198 -0.855618 -0.496236
vn -0.276102 -0.813951 -0.511127
vn -0.617130 -0.766939 -0.175941
vn 0.124249 -0.820188 -0.558439
vn 0.325323 -0.887056 -0.327561
vn 0.575693 -0.609892 -0.544618
vn 0.554985 -0.815116 -0.166063
vn -0.159434 -0.957112 0.241906
vn -0.706115 -0.694637 0.137405
vn 0.433928 -0.841990 0.320561
vn 0.388711 -0.916263 0.096778
vn -0.537510 -0.707170 0.459340
vn -0.109659 -0.797055 0.593867
vn 0.214112 -0.902517 0.373657
vn -0.310345 -0.898539 -0.310345
vn 0.537590 -0.167778 -0.826346
vn 0.737136 -0.094286 -0.669135
vn 0.919111 -0.058685 -0.389603
vn 0.869702 -0.060201 -0.489892
vn 0.944462 -0.325994 -0.041465
vn 0.978505 -0.195659 -0.065163
vn 0.999991 0.000000 -0.004176
vn 0.901499 -0.262855 0.343813
vn 0.910247 0.197232 -0.364073
vn 0.938495 0.099795 -0.330557
vn 0.941830 0.314985 -0.117222
vn 0.944758 0.103946 0.310851
vn 0.745309 0.474101 -0.468767
vn 0.824788 0.438344 -0.357182
vn 0.843796 0.520658 -0.130092
vn 0.708389 0.691977 0.139116
vn -0.677428 -0.732648 -0.065711
vn -0.807800 -0.451164 -0.379354
vn -0.664959 -0.638732 -0.387106
vn -0.570320 -0.239635 -0.785691
vn -0.667852 -0.704619 0.239761
vn -0.878123 -0.320044 0.355629
vn -0.880211 -0.335580 0.335580
vn -0.610273 -0.174109 0.772821
vn -0.780323 0.440073 -0.444332
vn -0.513562 0.363391 -0.777303
vn -0.735850 0.459963 0.496950
vn -0.458229 0.388541 0.799413
vn -0.519716 0.793163 -0.317471
vn -0.688909 0.515934 -0.509133
vn -0.618096 0.606363 0.500281
vn -0.942756 -0.317277 -0.102699
s 1
g pasted__pCube2 group
f 58/82/97 62/83/98 57/81/99
f 57/81/99 62/83/98 61/84/100
f 58/82/97 59/85/101 62/83/98
f 62/83/98 59/85/101 63/86/102
f 60/87/103 64/88/104 59/85/101
f 59/85/101 64/88/104 63/86/102
f 61/84/100 62/83/98 65/90/105
f 65/90/105 62/83/98 66/89/106
f 63/86/102 67/91/107 62/83/98
f 62/83/98 67/91/107 66/89/106
f 64/88/104 68/92/108 63/86/102
f 63/86/102 68/92/108 67/91/107
f 65/90/105 66/89/106 69/94/109
f 69/94/109 66/89/106 70/93/110
f 67/91/107 71/95/111 66/89/106
f 66/89/106 71/95/111 70/93/110
f 68/92/108 72/96/112 67/91/107
f 67/91/107 72/96/112 71/95/111
s 2
f 69/94/113 70/93/114 73/98/115
f 73/98/115 70/93/114 74/97/116
f 71/95/117 75/99/118 70/93/114
f 70/93/114 75/99/118 74/97/116
f 71/95/117 72/96/119 75/99/118
f 75/99/118 72/96/119 76/100/120
f 73/131/115 74/132/116 77/148/121
f 77/148/121 74/132/116 78/147/122
f 75/149/118 79/150/123 74/132/116
f 74/132/116 79/150/123 78/147/122
f 76/100/120 80/103/124 75/99/118
f 75/99/118 80/103/124 79/133/123
f 77/102/121 78/101/122 81/105/125
f 81/105/125 78/101/122 82/104/126
f 78/130/122 79/133/123 82/134/126
f 82/134/126 79/133/123 83/137/127
f 80/103/124 84/106/128 79/133/123
f 79/133/123 84/106/128 83/137/127
s 4
f 81/136/129 82/134/130 85/135/131
f 85/135/131 82/134/130 86/138/132
f 82/134/130 83/137/133 86/138/132
f 86/138/132 83/137/133 87/141/134
f 83/137/133 84/106/135 87/141/134
f 87/141/134 84/106/135 88/108/136
f 86/138/132 90/139/137 85/135/131
f 85/135/131 90/139/137 89/140/138
f 87/141/134 91/142/139 86/138/132
f 86/138/132 91/142/139 90/139/137
f 87/141/134 88/108/136 91/142/139
f 91/142/139 88/108/136 92/111/140
f 90/109/137 94/112/141 89/110/138
f 89/110/138 94/112/141 93/113/142
f 90/139/137 91/142/139 94/143/141
f 94/143/141 91/142/139 95/144/143
f 92/111/140 96/114/144 91/142/139
f 91/142/139 96/114/144 95/144/143
s 5
f 94/112/145 98/115/146 93/113/147
f 93/113/147 98/115/146 97/116/148
f 94/143/145 95/144/149 98/145/146
f 98/145/146 95/144/149 99/146/150
f 95/144/149 96/114/151 99/146/150
f 99/146/150 96/114/151 100/117/152
f 98/152/146 102/153/153 97/151/148
f 97/151/148 102/153/153 101/154/154
f 98/152/146 99/155/150 102/153/153
f 102/153/153 99/155/150 103/156/155
f 99/146/150 100/117/152 103/120/155
f 103/120/155 100/117/152 104/121/156
f 101/119/154 102/118/153 57/81/157
f 57/81/157 102/118/153 58/82/158
f 102/118/153 103/120/155 58/82/158
f 58/82/158 103/120/155 59/85/159
f 103/157/155 104/158/156 59/160/159
f 59/160/159 104/158/156 60/159/160
s 6
f 96/114/161 92/111/162 100/117/163
f 100/117/163 92/111/162 105/122/164
f 100/117/163 105/122/164 104/121/165
f 104/121/165 105/122/164 106/123/166
f 60/87/167 104/121/165 64/88/168
f 64/88/168 104/121/165 106/123/166
f 105/122/164 92/111/162 107/124/169
f 107/124/169 92/111/162 88/108/170
f 106/123/166 105/122/164 108/125/171
f 108/125/171 105/122/164 107/124/169
f 64/88/168 106/123/166 68/92/172
f 68/92/172 106/123/166 108/125/171
f 88/108/170 84/106/173 107/124/169
f 107/124/169 84/106/173 80/103/174
f 108/125/171 107/124/169 76/100/175
f 76/100/175 107/124/169 80/103/174
f 68/92/172 108/125/171 72/96/176
f 72/96/176 108/125/171 76/100/175
s 7
f 97/116/177 109/126/178 93/113/179
f 93/113/179 109/126/178 89/110/180
f 97/116/177 101/119/181 109/126/178
f 109/126/178 101/119/181 110/127/182
f 57/81/183 61/84/184 101/119/181
f 101/119/181 61/84/184 110/127/182
f 109/126/178 111/128/185 89/110/180
f 89/110/180 111/128/185 85/107/186
f 110/127/182 112/129/187 109/126/178
f 109/126/178 112/129/187 111/128/185
f 110/127/182 61/84/184 112/129/187
f 112/129/187 61/84/184 65/90/188
f 111/128/185 77/102/189 85/107/186
f 85/107/186 77/102/189 81/105/190
f 111/128/185 112/129/187 77/102/189
f 77/102/189 112/129/187 73/98/191
f 112/129/187 65/90/188 73/98/191
f 73/98/191 65/90/188 69/94/192