# This file uses centimeters as units for non-parametric coordinates.

mtllib stone_03.mtl
g default
v -9.829308 -6.149908 11.806305
v -2.893720 -6.468014 14.202388
v 4.224896 -6.468014 10.019546
v 9.497163 -6.468014 7.617806
v -12.674687 -2.156005 10.019546
v -4.224895 -2.156005 12.151992
v 4.624077 -2.156005 11.927309
v 7.442018 -2.156005 10.019546
v -10.425251 2.156005 7.813095
v -4.224895 2.156005 8.014188
v 3.247265 2.156005 13.119442
v 9.249621 2.156005 11.653882
v -12.239865 5.021577 7.304521
v -4.224895 7.320617 7.251632
v 4.597473 4.931783 10.271505
v 10.107741 4.625245 7.106821
v -12.674687 6.468014 1.143420
v -4.224895 10.309980 1.143420
v 4.597473 6.521144 1.833742
v 12.302110 4.875278 0.891462
v -13.265877 6.468014 -4.212024
v -4.224895 12.622763 -5.082659
v 4.224896 10.309980 -5.082659
v 8.617463 6.051743 -5.082659
v -8.514610 6.468014 -8.949082
v -4.224895 5.486207 -9.927830
v 2.979428 5.005087 -10.023730
v 7.627956 4.813135 -7.114712
v -10.546021 2.156005 -13.232997
v -2.388899 2.156005 -12.438175
v 1.820581 2.156005 -10.390440
v 10.731022 2.156005 -9.148742
v -12.674687 -2.156005 -11.308737
v -4.224895 -2.156005 -11.308737
v 4.224896 -2.156005 -11.308737
v 8.965303 -2.156005 -8.124885
v -11.154621 -6.468014 -9.075120
v -4.224895 -6.468014 -11.308737
v 4.224896 -6.468014 -11.308737
v 6.551119 -6.468014 -8.018023
v -12.674687 -6.468014 -5.082659
v -4.224895 -9.595181 -2.632338
v 4.224896 -11.816581 -5.082659
v 10.055105 -6.468014 -5.082659
v -12.674687 -6.468014 1.143420
v -4.224895 -10.695664 1.143420
v 4.224896 -10.695664 1.143420
v 10.055105 -6.468014 1.143420
v 12.674687 -2.156005 -5.082659
v 12.674687 -2.156005 1.143420
v 12.674687 2.156005 -5.082659
v 15.742256 2.094423 1.314804
v -12.674687 -2.156005 -5.082659
v -12.674687 -2.156005 1.143420
v -12.282602 2.156005 -6.807689
v -10.001481 2.156005 0.650312
vt 0.388806 0.626064
vt 0.446336 0.612974
vt 0.428969 0.672983
vt 0.365394 0.683859
vt 0.517565 0.575883
vt 0.515669 0.669359
vt 0.583862 0.585559
vt 0.550217 0.666962
vt 0.406296 0.764351
vt 0.360636 0.750090
vt 0.500136 0.752383
vt 0.555641 0.750154
vt 0.400141 0.880414
vt 0.349577 0.790752
vt 0.520801 0.818431
vt 0.592352 0.806925
vt 0.307944 0.974057
vt 0.299259 0.817982
vt 0.623353 0.967537
vt 0.664591 0.811583
vt 0.198633 0.959453
vt 0.256187 0.810322
vt 0.746211 0.850923
vt 0.163652 0.817349
vt 0.201749 0.820290
vt 0.773132 0.819731
vt 0.138614 0.750876
vt 0.190721 0.742934
vt 0.763704 0.750643
vt 0.157752 0.673385
vt 0.209591 0.686530
vt 0.769273 0.667817
vt 0.157752 0.603629
vt 0.215097 0.620987
vt 0.789937 0.576267
vt 0.231654 0.478657
vt 0.248125 0.617105
vt 0.736278 0.580610
vt 0.307944 0.454459
vt 0.299259 0.610326
vt 0.643044 0.408726
vt 0.660071 0.561967
vt 0.723113 0.672397
vt 0.662107 0.667320
vt 0.723113 0.752569
vt 0.662150 0.747539
vt 0.248125 0.679423
vt 0.299259 0.676420
vt 0.234505 0.746993
vt 0.295367 0.756810
vt 0.949384 0.959453
vt 0.358681 0.345266
vt 0.552385 0.330109
vt 0.797835 0.959554
vt 0.914403 0.817349
vt 0.837049 0.817300
vt 0.889364 0.750876
vt 0.850277 0.757979
vt 0.908502 0.673385
vt 0.827032 0.670297
vt 0.908502 0.603629
vt 0.827032 0.596981
vt 0.982404 0.478657
vt 0.797835 0.458499
vt 0.544205 0.481966
vt 0.358681 0.481966
vt 0.358681 0.428166
vt 0.544205 0.481966
vt 0.544205 0.345266
vt 0.358681 0.345266
vt 0.544205 0.150381
vt 0.387908 0.058542
vn 0.044194 0.169238 0.984584
vn -0.179136 0.404130 0.896989
vn -0.265293 0.292758 0.918647
vn -0.221507 0.424910 0.877717
vn 0.446279 -0.359764 0.819393
vn 0.254343 -0.195364 0.947176
vn 0.396044 -0.295482 0.869390
vn 0.475760 -0.400792 0.782955
vn -0.091725 0.484798 0.869803
vn -0.231755 0.481928 0.845006
vn -0.156980 0.420052 0.893820
vn 0.317240 0.382155 0.867938
vn -0.034693 0.147747 0.988417
vn -0.172190 0.143885 0.974499
vn -0.120274 0.617427 0.777379
vn 0.330510 0.801842 0.497807
vn -0.266344 0.934013 0.238075
vn 0.017161 0.946151 0.323269
vn -0.371810 0.904655 0.208221
vn -0.072126 0.919530 0.386345
vn 0.184556 0.965837 0.181928
vn 0.300789 0.915097 0.268558
vn 0.181855 0.970407 0.158868
vn 0.218232 0.972054 0.086525
vn -0.522656 0.844853 -0.114253
vn -0.118939 0.970923 -0.207753
vn 0.383089 0.892291 -0.238872
vn 0.559364 0.813391 -0.159710
vn 0.047953 0.607757 -0.792674
vn -0.325789 0.655230 -0.681569
vn 0.187879 0.648512 -0.737654
vn 0.410878 0.675766 -0.611980
vn -0.000498 0.704910 -0.709297
vn 0.032285 0.652663 -0.756961
vn 0.055587 0.043606 -0.997501
vn 0.186069 0.118997 -0.975304
vn 0.321266 0.247290 -0.914131
vn 0.222722 0.172999 -0.959409
vn 0.208058 0.545859 -0.811634
vn 0.209507 0.357052 -0.910286
vn 0.001296 -0.172318 -0.985041
vn 0.000000 -0.434943 -0.900458
vn 0.209341 0.011300 -0.977777
vn 0.520753 -0.357293 -0.775344
vn -0.139807 -0.268949 -0.952953
vn -0.143725 0.000000 -0.989618
vn 0.292060 0.000000 -0.956400
vn 0.690759 -0.164674 -0.704084
vn 0.000000 -1.000000 -0.000000
vn -0.085079 -0.942506 -0.323178
vn -0.271101 -0.944749 -0.184265
vn -0.261510 -0.924292 -0.278024
vn -0.009125 -0.872645 -0.488269
vn 0.035650 -0.956814 -0.288506
vn 0.608929 -0.568457 -0.553228
vn 0.633284 -0.752844 -0.179381
vn -0.419460 -0.904685 0.074819
vn -0.177713 -0.973050 0.146945
vn 0.206041 -0.947547 0.244341
vn 0.586845 -0.809298 0.025494
vn -0.249051 -0.931219 0.266092
vn 0.008243 -0.951601 0.307227
vn 0.148394 -0.928572 0.340196
vn 0.329605 -0.890662 0.313179
vn 0.600580 -0.354017 -0.716921
vn 0.666414 -0.277418 -0.692049
vn 0.805697 -0.486222 -0.338289
vn 0.899745 -0.267606 -0.344740
vn 0.854040 -0.518837 0.037730
vn 0.879236 -0.435663 0.192722
vn 0.913786 -0.073558 0.399481
vn 0.813903 -0.303637 0.495344
vn 0.882674 0.255703 -0.394337
vn 0.887292 0.181154 -0.424142
vn 0.988316 -0.073125 0.133731
vn 0.814716 -0.269884 0.513225
vn 0.551842 0.690503 -0.467627
vn 0.641541 0.668134 -0.376859
vn 0.645220 0.760655 -0.071385
vn 0.685138 0.608286 0.400717
vn -0.989116 0.000000 -0.147137
vn -0.995541 0.086737 0.037073
vn -0.967684 -0.204425 -0.147643
vn -0.996349 0.007699 -0.085029
vn -0.988020 -0.138814 0.067436
vn -0.961442 0.274894 -0.007939
vn -0.838197 -0.490546 0.238306
vn -0.989960 -0.065220 0.125402
vn -0.979609 0.194302 -0.051112
vn -0.856247 0.461829 -0.231420
vn -0.997191 0.012611 0.073835
vn -0.982556 0.183228 -0.031790
vn -0.767992 0.439965 -0.465423
vn -0.965183 -0.223006 -0.136715
vn -0.849096 -0.528041 0.014422
vn -0.845815 -0.530523 -0.056056
s 1
g pasted__pCube4 group
usemtl initialShadingGroup
f 2/2/1 6/3/2 1/1/3
f 1/1/3 6/3/2 5/4/4
f 3/5/5 7/6/6 2/2/1
f 2/2/1 7/6/6 6/3/2
f 4/7/7 8/8/8 3/5/5
f 3/5/5 8/8/8 7/6/6
f 5/4/4 6/3/2 9/10/9
f 9/10/9 6/3/2 10/9/10
f 7/6/6 11/11/11 6/3/2
f 6/3/2 11/11/11 10/9/10
f 8/8/8 12/12/12 7/6/6
f 7/6/6 12/12/12 11/11/11
f 9/10/9 10/9/10 13/14/13
f 13/14/13 10/9/10 14/13/14
f 11/11/11 15/15/15 10/9/10
f 10/9/10 15/15/15 14/13/14
f 11/11/11 12/12/12 15/15/15
f 15/15/15 12/12/12 16/16/16
s 3
f 13/14/17 14/13/18 17/18/19
f 17/18/19 14/13/18 18/17/20
f 15/15/21 19/19/22 14/13/18
f 14/13/18 19/19/22 18/17/20
f 15/15/21 16/16/23 19/19/22
f 19/19/22 16/16/23 20/20/24
f 17/18/19 18/17/20 21/22/25
f 21/22/25 18/17/20 22/21/26
f 19/53/22 23/65/27 18/52/20
f 18/52/20 23/65/27 22/66/26
f 20/20/24 24/23/28 19/19/22
f 19/19/22 24/23/28 23/54/27
f 26/24/29 25/25/30 22/21/26
f 21/22/25 22/21/26 25/25/30
f 22/51/26 23/54/27 26/55/29
f 26/55/29 23/54/27 27/56/31
f 23/54/27 24/23/28 27/56/31
f 27/56/31 24/23/28 28/26/32
s 5
f 25/25/33 26/24/34 29/28/35
f 29/28/35 26/24/34 30/27/36
f 26/55/34 27/56/37 30/57/36
f 30/57/36 27/56/37 31/58/38
f 27/56/37 28/26/39 31/58/38
f 31/58/38 28/26/39 32/29/40
f 30/27/36 34/30/41 29/28/35
f 29/28/35 34/30/41 33/31/42
f 30/57/36 31/58/38 34/59/41
f 34/59/41 31/58/38 35/60/43
f 31/58/38 32/29/40 35/60/43
f 35/60/43 32/29/40 36/32/44
f 33/31/42 34/30/41 37/34/45
f 37/34/45 34/30/41 38/33/46
f 34/59/41 35/60/43 38/61/46
f 38/61/46 35/60/43 39/62/47
f 36/32/44 40/35/48 35/60/43
f 35/60/43 40/35/48 39/62/47
s 6
f 37/34/49 38/33/50 41/37/51
f 41/37/51 38/33/50 42/36/52
f 38/61/50 39/62/53 42/63/52
f 42/63/52 39/62/53 43/64/54
f 39/62/53 40/35/55 43/64/54
f 40/35/55 44/38/56 43/64/54
f 41/37/51 42/36/52 45/40/57
f 45/40/57 42/36/52 46/39/58
f 43/68/54 47/69/59 42/67/52
f 42/67/52 47/69/59 46/70/58
f 43/64/54 44/38/56 47/41/59
f 47/41/59 44/38/56 48/42/60
f 45/40/57 46/39/58 1/1/61
f 1/1/61 46/39/58 2/2/62
f 47/69/59 3/71/63 46/70/58
f 46/70/58 3/71/63 2/72/62
f 48/42/60 4/7/64 47/41/59
f 47/41/59 4/7/64 3/5/63
s 7
f 40/35/65 36/32/66 44/38/67
f 44/38/67 36/32/66 49/43/68
f 48/42/69 44/38/67 50/44/70
f 50/44/70 44/38/67 49/43/68
f 48/42/69 50/44/70 4/7/71
f 4/7/71 50/44/70 8/8/72
f 49/43/68 36/32/66 51/45/73
f 51/45/73 36/32/66 32/29/74
f 49/43/68 51/45/73 50/44/70
f 50/44/70 51/45/73 52/46/75
f 50/44/70 52/46/75 8/8/72
f 8/8/72 52/46/75 12/12/76
f 32/29/74 28/26/77 51/45/73
f 51/45/73 28/26/77 24/23/78
f 52/46/75 51/45/73 20/20/79
f 20/20/79 51/45/73 24/23/78
f 12/12/76 52/46/75 16/16/80
f 16/16/80 52/46/75 20/20/79
s 8
f 41/37/81 53/47/82 37/34/83
f 37/34/83 53/47/82 33/31/84
f 41/37/81 45/40/85 53/47/82
f 53/47/82 45/40/85 54/48/86
f 1/1/87 5/4/88 45/40/85
f 45/40/85 5/4/88 54/48/86
f 53/47/82 55/49/89 33/31/84
f 33/31/84 55/49/89 29/28/90
f 54/48/86 56/50/91 53/47/82
f 53/47/82 56/50/91 55/49/89
f 5/4/88 9/10/92 54/48/86
f 54/48/86 9/10/92 56/50/91
f 29/28/90 55/49/89 25/25/93
f 25/25/93 55/49/89 21/22/94
f 55/49/89 56/50/91 21/22/94
f 21/22/94 56/50/91 17/18/95
f 9/10/92 13/14/96 56/50/91
f 56/50/91 13/14/96 17/18/95