# This file uses centimeters as units for non-parametric coordinates.

mtllib nest_body.mtl
g default
v -9.324783 8.795979 5.140410
v -8.581088 6.053809 7.258978
v -6.036089 7.956602 8.828465
v -6.779778 10.698775 6.709896
v -9.402491 9.249103 8.718651
v 2.019253 0.885508 -2.365143
v -0.064715 -0.672598 -3.650311
v 2.628229 -1.359910 -0.630350
v 0.544256 -2.918019 -1.915522
v 9.576487 17.438637 -3.475834
v 7.972250 18.768295 1.541471
v 11.590702 15.289771 3.620311
v 13.194966 13.960114 -1.396999
v 13.182610 19.126865 0.171112
v -0.900141 -4.874317 -1.708389
v -3.863116 -2.025952 -3.410642
v -2.213777 -3.785535 2.400023
v -5.176748 -0.937118 0.697769
v 3.412211 9.855771 -10.751040
v 0.900312 12.438054 -9.713745
v 3.412211 13.940556 -7.371382
v 5.924109 11.358278 -8.408691
v 4.314543 13.604206 -11.123196
v 0.714748 -2.291413 2.189448
v -1.342114 -3.521746 0.271413
v -1.342114 -0.176909 3.038846
v -3.398975 -1.407222 1.120805
v 3.408208 22.050188 6.473057
v -2.294574 21.288549 8.781026
v 0.029919 17.860525 13.393391
v 5.732701 18.622162 11.085415
v 2.220828 23.567625 12.365106
v 2.344944 -4.846865 -1.894372
v 0.441537 -2.039861 -5.671197
v -2.324770 -5.470541 -0.004492
v -4.228176 -2.663492 -3.781325
v -8.631381 20.131794 -0.686872
v -11.109428 17.666389 3.797904
v -7.203232 18.592665 7.824798
v -4.725201 21.058079 3.340023
v -9.695400 22.834188 4.495118
v 3.951637 -2.226230 -1.519901
v 0.753067 -2.984706 -4.817320
v 1.922504 -4.245027 2.152453
v -1.276070 -5.003537 -1.144964
v -0.401767 23.214739 -4.729094
v -4.785176 23.214739 -0.345684
v -0.401768 23.214739 4.037727
v 3.981639 23.214739 -0.345683
v -0.401768 27.598175 -0.345683
v 3.149397 -4.526150 -0.406456
v -0.439951 -4.526150 -3.995795
v -0.439952 -4.526150 3.182891
v -4.029296 -4.526150 -0.406456
v -2.492218 13.024546 -13.260411
v -8.304243 11.332221 -11.924401
v -8.578959 15.723342 -7.557357
v -2.766946 17.415663 -8.893379
v -6.750194 16.665730 -12.789696
v 3.041512 0.055769 3.214880
v 3.266473 -3.539884 -0.361067
v -1.717654 -1.329974 4.308887
v -1.492693 -4.925657 0.732934
v -10.622352 8.785951 -4.729094
v -12.253933 4.717506 -0.345684
v -10.622352 8.785951 4.037727
v -8.990745 12.854391 -0.345683
v -13.040413 9.755683 -0.345683
v 4.182257 7.571524 -0.345683
v 1.977641 -1.113137 -3.995795
v 1.977641 -1.113138 3.182891
v 0.641610 -4.444567 -0.406456
v 4.169892 9.105947 6.328687
v 2.525252 7.238637 8.014672
v 4.479916 5.022110 7.466493
v 6.124557 6.889418 5.780509
v 5.443179 7.626379 8.611264
v -0.084365 -0.848839 -3.034505
v -1.684942 0.966150 -2.585635
v -1.431071 -2.377849 -1.653943
v -3.031648 -0.562862 -1.205069
vt 0.767860 0.597658
vt 0.582046 0.597658
vt 0.582046 0.023892
vt 0.767860 0.023892
vt 0.799098 0.959995
vt 0.619889 0.780786
vt 0.799098 0.780786
vt 0.799098 0.601577
vt 0.978307 0.780786
vt 0.024603 0.023892
vt 0.396231 0.597658
vt 0.396231 0.023892
vt 0.210417 0.597658
vt 0.210417 0.023892
vt 0.024603 0.597658
vt 0.799098 0.959995
vt 0.619889 0.780786
vt 0.799098 0.780786
vt 0.799098 0.601577
vt 0.978307 0.780786
vt 0.767860 0.597658
vt 0.582046 0.597658
vt 0.582046 0.023892
vt 0.767860 0.023892
vt 0.396231 0.597658
vt 0.396231 0.023892
vt 0.210417 0.597658
vt 0.210417 0.023892
vt 0.024603 0.597658
vt 0.024603 0.023892
vt 0.799098 0.959995
vt 0.619889 0.780786
vt 0.799098 0.780786
vt 0.799098 0.601577
vt 0.978307 0.780786
vt 0.767860 0.597658
vt 0.582046 0.597658
vt 0.582046 0.023892
vt 0.767860 0.023892
vt 0.396231 0.597658
vt 0.396231 0.023892
vt 0.210417 0.597658
vt 0.210417 0.023892
vt 0.024603 0.597658
vt 0.024603 0.023892
vt 0.799098 0.959995
vt 0.619889 0.780786
vt 0.799098 0.780786
vt 0.799098 0.601577
vt 0.978307 0.780786
vt 0.767860 0.597658
vt 0.582046 0.597658
vt 0.582046 0.023892
vt 0.767860 0.023892
vt 0.396231 0.597658
vt 0.396231 0.023892
vt 0.210417 0.597658
vt 0.210417 0.023892
vt 0.024603 0.597658
vt 0.024603 0.023892
vt 0.799098 0.959995
vt 0.619889 0.780786
vt 0.799098 0.780786
vt 0.799098 0.601577
vt 0.978307 0.780786
vt 0.767860 0.597658
vt 0.582046 0.597658
vt 0.582046 0.023892
vt 0.767860 0.023892
vt 0.396231 0.597658
vt 0.396231 0.023892
vt 0.210417 0.597658
vt 0.210417 0.023892
vt 0.024603 0.597658
vt 0.024603 0.023892
vt 0.799098 0.959995
vt 0.619889 0.780786
vt 0.799098 0.780786
vt 0.799098 0.601577
vt 0.978307 0.780786
vt 0.767860 0.597658
vt 0.582046 0.597658
vt 0.582046 0.023892
vt 0.767860 0.023892
vt 0.396231 0.597658
vt 0.396231 0.023892
vt 0.210417 0.597658
vt 0.210417 0.023892
vt 0.024603 0.597658
vt 0.024603 0.023892
vt 0.799098 0.959995
vt 0.619889 0.780786
vt 0.799098 0.780786
vt 0.799098 0.601577
vt 0.978307 0.780786
vt 0.767860 0.597658
vt 0.582046 0.597658
vt 0.582046 0.023892
vt 0.767860 0.023892
vt 0.396231 0.597658
vt 0.396231 0.023892
vt 0.210417 0.597658
vt 0.210417 0.023892
vt 0.024603 0.597658
vt 0.024603 0.023892
vt 0.799098 0.959995
vt 0.619889 0.780786
vt 0.799098 0.780786
vt 0.799098 0.601577
vt 0.978307 0.780786
vt 0.767860 0.597658
vt 0.582046 0.597658
vt 0.582046 0.023892
vt 0.767860 0.023892
vt 0.396231 0.597658
vt 0.396231 0.023892
vt 0.210417 0.597658
vt 0.210417 0.023892
vt 0.024603 0.597658
vt 0.024603 0.023892
vt 0.799098 0.959995
vt 0.619889 0.780786
vt 0.799098 0.780786
vt 0.799098 0.601577
vt 0.978307 0.780786
vt 0.767860 0.597658
vt 0.582046 0.597658
vt 0.582046 0.023892
vt 0.767860 0.023892
vt 0.396231 0.597658
vt 0.396231 0.023892
vt 0.210417 0.597658
vt 0.210417 0.023892
vt 0.024603 0.597658
vt 0.024603 0.023892
vn -0.967214 -0.253720 0.011125
vn -0.967214 -0.253720 0.011125
vn -0.967214 -0.253720 0.011125
vn -0.200903 -0.449305 0.870496
vn -0.200903 -0.449305 0.870496
vn -0.200903 -0.449305 0.870496
vn 0.218825 0.633033 0.742553
vn 0.218825 0.633033 0.742553
vn 0.218825 0.633033 0.742553
vn -0.547484 0.828622 -0.116820
vn -0.547484 0.828622 -0.116820
vn -0.547484 0.828622 -0.116820
vn -0.033486 0.662222 -0.748559
vn -0.033487 0.662221 -0.748560
vn -0.033486 0.662222 -0.748559
vn -0.033487 0.662221 -0.748560
vn 0.831951 0.462471 0.306557
vn 0.831951 0.462471 0.306557
vn 0.831951 0.462474 0.306555
vn 0.831951 0.462474 0.306554
vn 0.061167 -0.682531 0.728292
vn 0.061167 -0.682531 0.728292
vn 0.061169 -0.682530 0.728293
vn 0.061169 -0.682530 0.728293
vn -0.810210 -0.479823 -0.336646
vn -0.810210 -0.479823 -0.336646
vn -0.810210 -0.479823 -0.336646
vn -0.810210 -0.479822 -0.336646
vn -0.142837 0.944458 -0.295966
vn -0.142837 0.944458 -0.295966
vn -0.142837 0.944458 -0.295966
vn 0.158625 0.622843 0.766097
vn 0.158625 0.622843 0.766097
vn 0.158625 0.622843 0.766097
vn 0.940297 -0.096785 0.326305
vn 0.940297 -0.096785 0.326305
vn 0.940296 -0.096785 0.326305
vn 0.638833 0.224832 -0.735760
vn 0.638833 0.224832 -0.735760
vn 0.638833 0.224832 -0.735760
vn 0.316674 -0.221741 -0.922252
vn 0.316674 -0.221741 -0.922252
vn 0.316675 -0.221742 -0.922251
vn 0.316675 -0.221742 -0.922251
vn 0.736455 -0.557475 0.383217
vn 0.736456 -0.557476 0.383215
vn 0.736455 -0.557475 0.383217
vn 0.736456 -0.557476 0.383215
vn -0.344739 0.190684 0.919127
vn -0.344738 0.190682 0.919128
vn -0.344739 0.190684 0.919127
vn -0.344737 0.190682 0.919128
vn -0.761011 0.524172 -0.382239
vn -0.761011 0.524172 -0.382240
vn -0.761010 0.524170 -0.382244
vn -0.761009 0.524170 -0.382245
vn -0.381607 0.000092 -0.924325
vn -0.381607 0.000092 -0.924325
vn -0.381607 0.000092 -0.924325
vn -0.381609 0.907956 -0.173177
vn -0.381609 0.907956 -0.173177
vn -0.381608 0.907956 -0.173177
vn 0.734952 0.667971 0.116876
vn 0.734952 0.667971 0.116876
vn 0.734952 0.667971 0.116876
vn 0.734951 -0.239891 -0.634271
vn 0.734951 -0.239891 -0.634271
vn 0.734951 -0.239891 -0.634271
vn 0.713881 -0.578657 -0.394373
vn 0.713882 -0.578656 -0.394372
vn 0.713881 -0.578657 -0.394373
vn 0.713883 -0.578656 -0.394372
vn 0.622254 0.317939 0.715343
vn 0.622254 0.317938 0.715343
vn 0.622254 0.317939 0.715343
vn 0.622254 0.317938 0.715343
vn -0.720949 0.551866 0.419138
vn -0.720949 0.551866 0.419138
vn -0.720949 0.551866 0.419138
vn -0.720949 0.551866 0.419138
vn -0.637176 -0.342455 -0.690457
vn -0.637177 -0.342455 -0.690457
vn -0.637179 -0.342452 -0.690456
vn -0.637180 -0.342452 -0.690456
vn -0.240077 0.927298 -0.287197
vn -0.240077 0.927298 -0.287197
vn -0.240077 0.927298 -0.287197
vn -0.685041 0.375465 0.624295
vn -0.685041 0.375465 0.624295
vn -0.685041 0.375465 0.624295
vn 0.372255 0.024264 0.927813
vn 0.372255 0.024264 0.927813
vn 0.372255 0.024264 0.927813
vn 0.817217 0.576100 0.016319
vn 0.817217 0.576100 0.016319
vn 0.817217 0.576100 0.016319
vn 0.914120 0.087053 -0.395989
vn 0.914119 0.087053 -0.395989
vn 0.914119 0.087053 -0.395990
vn 0.914119 0.087053 -0.395990
vn 0.382584 -0.488831 0.784011
vn 0.382584 -0.488831 0.784011
vn 0.382584 -0.488831 0.784011
vn 0.382584 -0.488831 0.784011
vn -0.919750 -0.121499 0.373225
vn -0.919751 -0.121499 0.373225
vn -0.919751 -0.121499 0.373225
vn -0.919751 -0.121498 0.373224
vn -0.385794 0.452749 -0.803854
vn -0.385791 0.452749 -0.803855
vn -0.385794 0.452749 -0.803854
vn -0.385791 0.452750 -0.803855
vn -0.896146 0.290468 -0.335484
vn -0.896146 0.290468 -0.335484
vn -0.896146 0.290468 -0.335484
vn -0.725847 0.106934 0.679494
vn -0.725847 0.106934 0.679494
vn -0.725847 0.106934 0.679494
vn 0.389240 0.699336 0.599518
vn 0.389240 0.699336 0.599518
vn 0.389240 0.699336 0.599518
vn 0.218941 0.882870 -0.415459
vn 0.218941 0.882870 -0.415459
vn 0.218941 0.882870 -0.415459
vn 0.620794 0.375032 -0.688452
vn 0.620795 0.375032 -0.688451
vn 0.620795 0.375032 -0.688451
vn 0.620795 0.375032 -0.688451
vn 0.812465 0.187545 0.552021
vn 0.812465 0.187545 0.552021
vn 0.812465 0.187545 0.552021
vn 0.812465 0.187545 0.552021
vn -0.605225 -0.411150 0.681658
vn -0.605225 -0.411150 0.681659
vn -0.605224 -0.411150 0.681659
vn -0.605224 -0.411150 0.681659
vn -0.796270 -0.222761 -0.562434
vn -0.796270 -0.222761 -0.562434
vn -0.796270 -0.222761 -0.562434
vn -0.796270 -0.222761 -0.562434
vn -0.577352 0.577348 -0.577351
vn -0.577352 0.577348 -0.577351
vn -0.577352 0.577348 -0.577351
vn -0.577352 0.577348 0.577351
vn -0.577352 0.577348 0.577351
vn -0.577352 0.577348 0.577351
vn 0.577352 0.577348 0.577351
vn 0.577352 0.577348 0.577351
vn 0.577352 0.577348 0.577351
vn 0.577352 0.577348 -0.577351
vn 0.577352 0.577348 -0.577351
vn 0.577352 0.577348 -0.577351
vn 0.706970 -0.019661 -0.706970
vn 0.706969 -0.019661 -0.706971
vn 0.706970 -0.019661 -0.706970
vn 0.706969 -0.019661 -0.706971
vn 0.706924 -0.022757 0.706923
vn 0.706924 -0.022757 0.706923
vn 0.706924 -0.022757 0.706924
vn 0.706923 -0.022757 0.706924
vn -0.706954 -0.020812 0.706953
vn -0.706954 -0.020812 0.706953
vn -0.706954 -0.020812 0.706953
vn -0.706954 -0.020812 0.706953
vn -0.706996 -0.017715 -0.706996
vn -0.706996 -0.017715 -0.706996
vn -0.706995 -0.017715 -0.706996
vn -0.706995 -0.017715 -0.706996
vn -0.194691 -0.101550 -0.975594
vn -0.194691 -0.101550 -0.975594
vn -0.194691 -0.101550 -0.975594
vn -0.931673 0.225217 -0.285067
vn -0.931673 0.225217 -0.285068
vn -0.931673 0.225217 -0.285068
vn -0.261219 0.961796 0.081928
vn -0.261219 0.961796 0.081928
vn -0.261219 0.961796 0.081928
vn 0.475760 0.635027 -0.608599
vn 0.475760 0.635027 -0.608599
vn 0.475760 0.635027 -0.608599
vn 0.964336 0.214521 -0.155038
vn 0.964336 0.214521 -0.155038
vn 0.964336 0.214521 -0.155038
vn 0.964336 0.214522 -0.155038
vn 0.019935 0.576442 0.816895
vn 0.019936 0.576442 0.816895
vn 0.019937 0.576443 0.816894
vn 0.019937 0.576443 0.816894
vn -0.949458 -0.249207 0.190854
vn -0.949458 -0.249207 0.190854
vn -0.949458 -0.249208 0.190853
vn -0.949458 -0.249208 0.190853
vn -0.002234 -0.614894 -0.788606
vn -0.002234 -0.614894 -0.788607
vn -0.002234 -0.614894 -0.788607
vn -0.002234 -0.614894 -0.788607
vn -0.879849 -0.137348 -0.454974
vn -0.879849 -0.137348 -0.454974
vn -0.879849 -0.137348 -0.454974
vn -0.879849 -0.137348 0.454974
vn -0.879849 -0.137348 0.454974
vn -0.879849 -0.137348 0.454974
vn -0.541147 0.707219 0.454974
vn -0.541147 0.707219 0.454974
vn -0.541147 0.707219 0.454974
vn -0.541147 0.707219 -0.454974
vn -0.541147 0.707219 -0.454974
vn -0.541147 0.707219 -0.454974
vn 0.263200 0.656297 -0.707107
vn 0.291672 0.366199 -0.883643
vn 0.283123 0.502201 -0.817090
vn 0.293272 0.306199 -0.905668
vn 0.263200 0.656297 0.707107
vn 0.283477 0.498263 0.819375
vn 0.291998 0.357007 0.887290
vn 0.293436 0.294972 0.909333
vn -0.412909 -0.585792 0.697392
vn -0.412909 -0.585791 0.697392
vn -0.412909 -0.585791 0.697392
vn -0.412909 -0.585791 0.697392
vn -0.417638 -0.583200 -0.696747
vn -0.417637 -0.583200 -0.696748
vn -0.417637 -0.583200 -0.696747
vn -0.417637 -0.583199 -0.696748
vn -0.226171 0.754962 0.615531
vn -0.226171 0.754962 0.615531
vn -0.226171 0.754962 0.615531
vn -0.141993 -0.353850 0.924461
vn -0.141993 -0.353850 0.924461
vn -0.141993 -0.353850 0.924461
vn 0.835262 -0.448668 0.317858
vn 0.835262 -0.448668 0.317858
vn 0.835262 -0.448668 0.317858
vn 0.751086 0.660144 0.008928
vn 0.751086 0.660144 0.008928
vn 0.751086 0.660144 0.008928
vn 0.395718 0.533788 -0.747313
vn 0.395718 0.533788 -0.747313
vn 0.395717 0.533789 -0.747313
vn 0.395717 0.533789 -0.747313
vn 0.763081 -0.645639 0.029292
vn 0.763080 -0.645639 0.029293
vn 0.763078 -0.645643 0.029296
vn 0.763077 -0.645643 0.029296
vn -0.422202 -0.550449 0.720244
vn -0.422200 -0.550451 0.720244
vn -0.422201 -0.550449 0.720244
vn -0.422200 -0.550451 0.720244
vn -0.776372 0.627144 -0.062741
vn -0.776369 0.627148 -0.062744
vn -0.776372 0.627144 -0.062741
vn -0.776369 0.627148 -0.062745
s off
g pPyramid12
usemtl initialShadingGroup
f 1/5/1 2/6/2 5/7/3
f 2/6/4 3/8/5 5/7/6
f 3/8/7 4/9/8 5/7/9
f 4/9/10 1/5/11 5/7/12
s 1
f 4/2/13 6/3/14 1/1/15
f 1/1/15 6/3/14 7/4/16
s 2
f 4/2/17 3/11/18 6/3/19
f 6/3/19 3/11/18 8/12/20
s 3
f 3/11/21 2/13/22 8/12/23
f 8/12/23 2/13/22 9/14/24
s 4
f 1/15/25 7/10/26 2/13/27
f 2/13/27 7/10/26 9/14/28
s off
f 10/16/29 11/17/30 14/18/31
f 11/17/32 12/19/33 14/18/34
f 12/19/35 13/20/36 14/18/37
f 13/20/38 10/16/39 14/18/40
s 5
f 10/21/41 13/22/42 16/24/43
f 16/24/43 13/22/42 15/23/44
s 6
f 12/25/45 17/26/46 13/22/47
f 13/22/47 17/26/46 15/23/48
s 7
f 11/27/49 18/28/50 12/25/51
f 12/25/51 18/28/50 17/26/52
s 8
f 11/27/53 10/29/54 18/28/55
f 18/28/55 10/29/54 16/30/56
s off
f 19/31/57 20/32/58 23/33/59
f 20/32/60 21/34/61 23/33/62
f 21/34/63 22/35/64 23/33/65
f 22/35/66 19/31/67 23/33/68
s 9
f 22/37/69 24/38/70 19/36/71
f 19/36/71 24/38/70 25/39/72
s 10
f 21/40/73 26/41/74 22/37/75
f 22/37/75 26/41/74 24/38/76
s 11
f 21/40/77 20/42/78 26/41/79
f 26/41/79 20/42/78 27/43/80
s 12
f 20/42/81 19/44/82 27/43/83
f 27/43/83 19/44/82 25/45/84
s off
f 28/46/85 29/47/86 32/48/87
f 29/47/88 30/49/89 32/48/90
f 30/49/91 31/50/92 32/48/93
f 31/50/94 28/46/95 32/48/96
s 13
f 28/51/97 31/52/98 34/54/99
f 34/54/99 31/52/98 33/53/100
s 14
f 31/52/101 30/55/102 33/53/103
f 33/53/103 30/55/102 35/56/104
s 15
f 29/57/105 36/58/106 30/55/107
f 30/55/107 36/58/106 35/56/108
s 16
f 28/59/109 34/60/110 29/57/111
f 29/57/111 34/60/110 36/58/112
s off
f 37/61/113 38/62/114 41/63/115
f 38/62/116 39/64/117 41/63/118
f 39/64/119 40/65/120 41/63/121
f 40/65/122 37/61/123 41/63/124
s 17
f 40/67/125 42/68/126 37/66/127
f 37/66/127 42/68/126 43/69/128
s 18
f 40/67/129 39/70/130 42/68/131
f 42/68/131 39/70/130 44/71/132
s 19
f 39/70/133 38/72/134 44/71/135
f 44/71/135 38/72/134 45/73/136
s 20
f 37/74/137 43/75/138 38/72/139
f 38/72/139 43/75/138 45/73/140
s off
f 46/76/141 47/77/142 50/78/143
f 47/77/144 48/79/145 50/78/146
f 48/79/147 49/80/148 50/78/149
f 49/80/150 46/76/151 50/78/152
s 21
f 49/82/153 51/83/154 46/81/155
f 46/81/155 51/83/154 52/84/156
s 22
f 49/82/157 48/85/158 51/83/159
f 51/83/159 48/85/158 53/86/160
s 23
f 48/85/161 47/87/162 53/86/163
f 53/86/163 47/87/162 54/88/164
s 24
f 47/87/165 46/89/166 54/88/167
f 54/88/167 46/89/166 52/90/168
s off
f 55/91/169 56/92/170 59/93/171
f 56/92/172 57/94/173 59/93/174
f 57/94/175 58/95/176 59/93/177
f 58/95/178 55/91/179 59/93/180
s 25
f 58/97/181 60/98/182 55/96/183
f 55/96/183 60/98/182 61/99/184
s 26
f 58/97/185 57/100/186 60/98/187
f 60/98/187 57/100/186 62/101/188
s 27
f 57/100/189 56/102/190 62/101/191
f 62/101/191 56/102/190 63/103/192
s 28
f 55/104/193 61/105/194 56/102/195
f 56/102/195 61/105/194 63/103/196
s off
f 64/106/197 65/107/198 68/108/199
f 65/107/200 66/109/201 68/108/202
f 66/109/203 67/110/204 68/108/205
f 67/110/206 64/106/207 68/108/208
s 29
f 67/112/209 69/113/210 64/111/211
f 64/111/211 69/113/210 70/114/212
s 30
f 67/112/213 66/115/214 69/113/215
f 69/113/215 66/115/214 71/116/216
s 31
f 66/115/217 65/117/218 71/116/219
f 71/116/219 65/117/218 72/118/220
s 32
f 64/119/221 70/120/222 65/117/223
f 65/117/223 70/120/222 72/118/224
s off
f 73/121/225 74/122/226 77/123/227
f 74/122/228 75/124/229 77/123/230
f 75/124/231 76/125/232 77/123/233
f 76/125/234 73/121/235 77/123/236
s 33
f 73/126/237 76/127/238 79/129/239
f 79/129/239 76/127/238 78/128/240
s 34
f 76/127/241 75/130/242 78/128/243
f 78/128/243 75/130/242 80/131/244
s 35
f 74/132/245 81/133/246 75/130/247
f 75/130/247 81/133/246 80/131/248
s 36
f 73/134/249 79/135/250 74/132/251
f 74/132/251 79/135/250 81/133/252