# Blender v2.76 (sub 0) OBJ File: ''
# www.blender.org
o group2
v -3.626852 -6.022635 7.284081
v -6.022634 -3.011618 3.011617
v -3.011618 -6.022634 -3.011619
v -6.022634 -3.011617 -3.011618
v -3.011618 -3.011619 6.597427
v 3.011618 -3.011619 6.597427
v 3.626852 -6.022635 7.284081
v -5.287405 3.011617 3.011618
v -3.011618 3.011617 6.022635
v 3.011618 -6.022634 -3.011619
v 6.022634 -3.011618 3.011617
v 6.022634 -3.011617 -3.011618
v 5.287405 3.011617 3.011618
v 3.011618 3.011617 6.022635
v -3.011618 6.022634 3.011619
v -5.287405 3.011618 -3.011617
v -3.011618 6.022635 -3.011617
v 3.011618 6.022634 3.011619
v 3.011618 6.022635 -3.011617
v 5.287405 3.011618 -3.011617
v -5.131336 6.308382 -7.577150
v -5.131336 -3.025902 -4.468118
v 5.131336 6.308382 -7.577150
v 5.131336 -3.025902 -4.468118
v 0.000000 5.063839 3.809720
v -0.951622 4.388775 4.480444
v 0.000000 5.224854 5.321932
v 0.000000 3.713711 5.151170
v 0.951622 4.388775 4.480444
v 4.530413 -0.393748 3.829562
v 3.188799 -0.684799 5.616724
v 4.948802 -1.573131 5.372427
v 3.486994 -2.914213 5.477501
v 4.828608 -2.623161 3.690340
v -4.388020 -0.095147 4.036668
v -5.225859 -1.996524 3.164100
v -5.162530 -1.579833 5.105434
v -4.088537 -3.199410 4.693202
v -3.250698 -1.298031 5.565771
v -0.062938 6.178278 -7.424769
v -2.535032 6.053514 -5.410323
v -0.062938 7.448927 -5.323899
v -0.062939 5.928750 -3.395877
v 2.409155 6.053514 -5.410323
vt 0.332608 0.165091
vt 0.374850 0.203303
vt 0.168114 0.402853
vt 0.995141 0.402853
vt 0.788405 0.203303
vt 0.830647 0.165091
vt 0.218595 0.402853
vt 0.374850 0.235291
vt 0.374850 0.402853
vt 0.788405 0.402853
vt 0.788405 0.235291
vt 0.944660 0.402853
vt 0.218595 0.738046
vt 0.374850 0.738046
vt 0.229311 0.992118
vt 0.933945 0.992118
vt 0.788405 0.738046
vt 0.944660 0.738046
vt 0.168114 0.738046
vt 0.229311 0.819100
vt 0.933945 0.819100
vt 0.995141 0.738046
vt 0.156377 0.065573
vt 0.132616 0.051999
vt 0.156377 0.034968
vt 0.156377 0.038424
vt 0.180139 0.051999
vt 0.269501 0.065171
vt 0.236001 0.029002
vt 0.279948 0.033946
vt 0.243447 0.031820
vt 0.276946 0.067989
vt 0.046810 0.060980
vt 0.025889 0.078639
vt 0.027471 0.039350
vt 0.054288 0.047693
vt 0.075208 0.030033
vt 0.154806 0.292940
vt 0.093078 0.252171
vt 0.154806 0.250422
vt 0.154806 0.211402
vt 0.216533 0.252171
vn -0.732900 0.290100 0.615400
vn 0.732900 0.290100 0.615400
vn -0.683200 0.516400 0.516400
vn 0.683200 0.516400 0.516400
vn -0.738600 0.558300 0.377900
vn 0.738600 0.558300 0.377900
vn -0.650600 -0.650600 -0.391700
vn 0.650600 -0.650600 -0.391700
vn -0.615000 0.784100 -0.083500
vn -0.615000 -0.088500 0.783500
vn 0.615000 -0.088500 0.783500
vn 0.615000 0.784100 -0.083500
vn 0.449900 0.764200 0.462200
vn 0.114200 -0.046700 0.992400
vn 0.641700 -0.670300 0.372600
vn 0.977400 0.140600 -0.157600
vn -0.902500 0.426200 -0.062000
vn -0.806200 -0.572600 0.149200
vn -0.170700 -0.347800 0.921900
vn -0.267100 0.650900 0.710700
vn -0.421600 0.775900 -0.469300
vn -0.421600 0.712100 0.561400
vn 0.421600 0.712100 0.561400
vn 0.421600 0.775900 -0.469300
vn -0.749800 -0.660200 -0.044800
vn -0.742600 -0.668700 -0.037000
vn -0.728700 -0.684500 -0.022100
vn -0.707100 -0.707100 -0.000000
vn 0.000000 0.222300 0.975000
vn -0.762500 0.093100 0.640300
vn -0.773300 0.082100 0.628700
vn -0.780900 0.074200 0.620300
vn -0.796400 0.057400 0.602000
vn 0.749800 -0.660200 -0.044800
vn 0.728700 -0.684500 -0.022100
vn 0.742600 -0.668700 -0.037000
vn 0.707100 -0.707100 -0.000000
vn 0.762500 0.093100 0.640300
vn 0.780900 0.074200 0.620300
vn 0.773300 0.082100 0.628700
vn 0.796400 0.057400 0.602000
vn -0.797800 0.603000 0.000000
vn 0.000000 0.707100 0.707100
vn 0.797800 0.603000 0.000000
vn -0.998900 -0.015000 -0.045000
vn -0.964800 0.037800 -0.260100
vn -0.997800 -0.009900 -0.065900
vn -0.847900 0.103500 -0.519900
vn 0.000000 0.998000 0.062500
vn 0.998900 -0.015000 -0.045000
vn 0.997800 -0.009900 -0.065900
vn 0.964800 0.037800 -0.260100
vn 0.847900 0.103500 -0.519900
vn 0.000000 -0.437100 -0.899400
vn 0.000000 0.095000 0.995500
vn 0.000000 1.000000 0.000000
vn 0.000000 -0.316000 -0.948800
vn 0.000000 -1.000000 -0.000000
vn 0.992600 0.121200 0.000000
vn -0.992600 0.121200 0.000000
s off
f 1/1/1 5/2/1 2/3/1
f 11/4/2 6/5/2 7/6/2
f 8/7/3 9/8/3 15/9/3
f 18/10/4 14/11/4 13/12/4
f 16/13/5 17/14/5 21/15/5
f 23/16/6 19/17/6 20/18/6
f 4/19/7 22/20/7 3/14/7
f 10/17/8 24/21/8 12/22/8
f 25/23/9 26/24/9 27/25/9
f 26/24/10 28/26/10 27/25/10
f 28/26/11 29/27/11 27/25/11
f 29/27/12 25/23/12 27/25/12
f 30/28/13 31/29/13 32/30/13
f 31/29/14 33/31/14 32/30/14
f 33/31/15 34/32/15 32/30/15
f 34/32/16 30/28/16 32/30/16
f 35/33/17 36/34/17 37/35/17
f 36/34/18 38/36/18 37/35/18
f 38/36/19 39/37/19 37/35/19
f 39/37/20 35/33/20 37/35/20
f 40/38/21 41/39/21 42/40/21
f 41/39/22 43/41/22 42/40/22
f 43/41/23 44/42/23 42/40/23
f 44/42/24 40/38/24 42/40/24
s 1
f 1/1/25 2/3/26 3/14/27
f 3/14/27 2/3/26 4/19/28
f 5/2/29 1/1/29 6/5/29
f 6/5/29 1/1/29 7/6/29
f 2/3/30 5/2/31 8/7/32
f 8/7/32 5/2/31 9/8/33
f 7/6/34 10/17/35 11/4/36
f 11/4/36 10/17/35 12/22/37
f 11/4/38 13/12/39 6/5/40
f 6/5/40 13/12/39 14/11/41
f 8/7/42 15/9/42 16/13/42
f 16/13/42 15/9/42 17/14/42
f 15/9/43 9/8/43 18/10/43
f 18/10/43 9/8/43 14/11/43
f 18/10/44 13/12/44 19/17/44
f 19/17/44 13/12/44 20/18/44
f 21/15/45 22/20/46 16/13/47
f 16/13/47 22/20/46 4/19/48
f 21/15/49 17/14/49 23/16/49
f 23/16/49 17/14/49 19/17/49
f 23/16/50 20/18/51 24/21/52
f 24/21/52 20/18/51 12/22/53
f 3/14/54 22/20/54 10/17/54
f 10/17/54 22/20/54 24/21/54
f 5/2/55 6/5/55 9/8/55
f 9/8/55 6/5/55 14/11/55
f 15/9/56 18/10/56 17/14/56
f 17/14/56 18/10/56 19/17/56
f 21/15/57 23/16/57 22/20/57
f 22/20/57 23/16/57 24/21/57
f 3/14/58 10/17/58 1/1/58
f 1/1/58 10/17/58 7/6/58
f 11/4/59 12/22/59 13/12/59
f 13/12/59 12/22/59 20/18/59
f 4/19/60 2/3/60 16/13/60
f 16/13/60 2/3/60 8/7/60