# This file uses centimeters as units for non-parametric coordinates.

mtllib enemy_tail_crystal.mtl
g default
v -2.689988 -5.720720 1.832051
v -4.858764 -3.112683 6.195204
v -5.379438 -2.651140 1.832051
v 5.379438 -2.651140 1.832051
v 4.858764 -3.112683 6.195204
v 2.689988 -5.720720 1.832051
v -4.934325 3.489246 1.832051
v -5.105974 5.903666 3.380163
v -2.689988 6.558826 1.832051
v 2.689988 6.558826 1.832051
v 5.105974 5.903666 3.380163
v 4.934325 3.489246 1.832051
v -4.421749 2.779621 -5.167831
v -2.211095 5.302730 -5.167831
v -2.689988 3.230587 -8.667073
v 2.689988 3.230587 -8.667073
v 2.211095 5.302730 -5.167831
v 4.421749 2.779621 -5.167831
v -4.421749 -2.267606 -5.167831
v -2.689988 -1.668518 -6.966440
v -2.689988 -4.738098 -3.467197
v 2.689988 -4.738098 -3.467197
v 2.689988 -1.668518 -6.966440
v 4.421749 -2.267606 -5.167831
vt 0.249975 0.293572
vt 0.000000 0.293572
vt 0.089014 0.764555
vt 0.249975 0.650129
vt 0.048395 0.000000
vt 0.750025 0.293572
vt 0.951605 0.000000
vt 0.025418 0.189408
vt 0.041372 0.293572
vt 1.000000 0.293572
vt 0.750025 0.650129
vt 0.910986 0.764555
vt 0.958628 0.293572
vt 0.974582 0.189408
vt 0.249975 0.293572
vt 0.294486 0.764555
vt 0.089014 0.764555
vt 0.750025 0.293572
vt 0.910986 0.764555
vt 0.705514 0.764555
vt 0.249975 1.000000
vt 0.249975 0.885574
vt 0.750025 1.000000
vt 0.750025 0.885574
vn -0.746590 -0.654134 -0.121294
vn -0.752326 -0.646383 -0.127258
vn -0.758235 -0.638169 -0.133491
vn -0.763387 -0.630807 -0.139006
vn 0.000000 -0.858347 0.513070
vn 0.000000 -0.858347 0.513070
vn 0.000000 -0.858347 0.513070
vn 0.000000 -0.858347 0.513070
vn -0.989476 0.071726 0.125666
vn -0.994492 0.049631 0.092319
vn -0.999947 -0.010106 0.002026
vn -0.998086 -0.041640 -0.045722
vn 0.746590 -0.654134 -0.121294
vn 0.758235 -0.638169 -0.133491
vn 0.752326 -0.646383 -0.127258
vn 0.763387 -0.630807 -0.139006
vn 0.989476 0.071726 0.125666
vn 0.999947 -0.010106 0.002026
vn 0.994492 0.049631 0.092319
vn 0.998086 -0.041640 -0.045722
vn -0.796962 0.582703 -0.159087
vn -0.764334 0.630755 -0.133944
vn -0.784893 0.601308 -0.149571
vn -0.746618 0.654159 -0.120989
vn 0.000000 0.920927 0.389736
vn 0.000000 0.920927 0.389736
vn 0.000000 0.920927 0.389736
vn 0.000000 0.920927 0.389736
vn 0.796962 0.582703 -0.159087
vn 0.784893 0.601308 -0.149571
vn 0.764334 0.630755 -0.133944
vn 0.746618 0.654159 -0.120989
vn -0.876808 -0.157685 -0.454251
vn -0.805124 -0.075585 -0.588271
vn -0.849738 -0.123586 -0.512515
vn -0.720367 0.000000 -0.693593
vn 0.000000 0.860451 -0.509533
vn 0.000000 0.860451 -0.509533
vn 0.000000 0.860451 -0.509533
vn 0.000000 0.860451 -0.509533
vn 0.876808 -0.157685 -0.454251
vn 0.849738 -0.123586 -0.512515
vn 0.805124 -0.075585 -0.588271
vn 0.720367 0.000000 -0.693593
vn 0.000000 -0.751752 -0.659446
vn 0.000000 -0.751752 -0.659446
vn 0.000000 -0.751752 -0.659446
vn 0.000000 -0.751752 -0.659446
vn 0.000000 0.298027 0.954557
vn 0.000000 0.298027 0.954557
vn 0.000000 0.298027 0.954557
vn 0.000000 0.298027 0.954557
vn 0.000000 0.984278 -0.176624
vn 0.000000 0.984278 -0.176624
vn 0.000000 0.984278 -0.176624
vn 0.000000 0.984278 -0.176624
vn 0.000000 -0.327935 -0.944700
vn 0.000000 -0.327935 -0.944700
vn 0.000000 -0.327935 -0.944700
vn 0.000000 -0.327935 -0.944700
vn 0.000000 -0.983240 -0.182319
vn 0.000000 -0.983240 -0.182319
vn 0.000000 -0.983240 -0.182319
vn 0.000000 -0.983240 -0.182319
vn 0.990770 0.000000 -0.135552
vn 0.993507 0.036150 -0.107880
vn 0.993915 0.046652 -0.099788
vn 0.994178 0.072067 -0.080106
vn -0.990770 0.000000 -0.135552
vn -0.993915 0.046652 -0.099788
vn -0.993507 0.036150 -0.107880
vn -0.994178 0.072067 -0.080106
vn -0.751992 -0.658867 0.020042
vn -0.751992 -0.658867 0.020042
vn -0.751992 -0.658867 0.020042
vn 0.751992 -0.658867 0.020042
vn 0.751992 -0.658867 0.020042
vn 0.751992 -0.658867 0.020042
vn -0.567959 0.415266 -0.710617
vn -0.567959 0.415266 -0.710617
vn -0.567959 0.415266 -0.710617
vn 0.567959 0.415266 -0.710617
vn 0.567959 0.415266 -0.710617
vn 0.567959 0.415266 -0.710617
vn -0.722899 0.633377 -0.276133
vn -0.722899 0.633377 -0.276133
vn -0.722899 0.633377 -0.276133
vn 0.722899 0.633377 -0.276133
vn 0.722899 0.633377 -0.276133
vn 0.722899 0.633377 -0.276133
vn -0.391015 -0.691900 -0.606944
vn -0.391015 -0.691901 -0.606944
vn -0.391015 -0.691901 -0.606944
vn 0.391015 -0.691901 -0.606944
vn 0.391015 -0.691901 -0.606944
vn 0.391015 -0.691900 -0.606944
s 1
g pCube2
usemtl initialShadingGroup
f 1/1/1 3/2/2 21/4/3
f 21/4/3 3/2/2 19/3/4
s 2
f 2/5/5 1/1/6 5/7/7
f 5/7/7 1/1/6 6/6/8
s 3
f 3/2/9 2/5/10 7/9/11
f 7/9/11 2/5/10 8/8/12
s 4
f 6/6/13 22/11/14 4/10/15
f 4/10/15 22/11/14 24/12/16
s 5
f 4/10/17 12/13/18 5/7/19
f 5/7/19 12/13/18 11/14/20
s 6
f 9/15/21 14/16/22 7/9/23
f 7/9/23 14/16/22 13/17/24
s 7
f 9/15/25 8/8/26 10/18/27
f 10/18/27 8/8/26 11/14/28
s 8
f 10/18/29 12/13/30 17/20/31
f 17/20/31 12/13/30 18/19/32
s 9
f 15/21/33 20/22/34 13/17/35
f 13/17/35 20/22/34 19/3/36
s 10
f 15/21/37 14/16/38 16/23/39
f 16/23/39 14/16/38 17/20/40
s 11
f 16/23/41 18/19/42 23/24/43
f 23/24/43 18/19/42 24/12/44
s 12
f 21/4/45 20/22/46 22/11/47
f 22/11/47 20/22/46 23/24/48
s 13
f 2/5/49 5/7/50 8/8/51
f 8/8/51 5/7/50 11/14/52
s 14
f 9/15/53 10/18/54 14/16/55
f 14/16/55 10/18/54 17/20/56
s 15
f 15/21/57 16/23/58 20/22/59
f 20/22/59 16/23/58 23/24/60
s 16
f 21/4/61 22/11/62 1/1/63
f 1/1/63 22/11/62 6/6/64
s 17
f 24/12/65 18/19/66 4/10/67
f 4/10/67 18/19/66 12/13/68
s 18
f 19/3/69 3/2/70 13/17/71
f 13/17/71 3/2/70 7/9/72
s off
f 1/1/73 2/5/74 3/2/75
f 4/10/76 5/7/77 6/6/78
f 7/9/79 8/8/80 9/15/81
f 10/18/82 11/14/83 12/13/84
f 13/17/85 14/16/86 15/21/87
f 16/23/88 17/20/89 18/19/90
f 19/3/91 20/22/92 21/4/93
f 22/11/94 23/24/95 24/12/96