# Blender v2.74 (sub 0) OBJ File: 'golfBall.blend'
# www.blender.org
v -0.382683 0.923880 0.000000
v -0.707107 0.707107 0.000000
v -0.923880 0.382683 0.000000
v -1.000000 -0.000000 0.000000
v -0.923880 -0.382684 0.000000
v -0.707107 -0.707107 0.000000
v -0.382683 -0.923880 0.000000
v -0.353553 0.923880 -0.146447
v -0.653281 0.707107 -0.270598
v -0.853553 0.382683 -0.353553
v -0.923880 -0.000000 -0.382683
v -0.853553 -0.382684 -0.353553
v -0.653281 -0.707107 -0.270598
v -0.353553 -0.923880 -0.146447
v -0.270598 0.923880 -0.270598
v -0.500000 0.707107 -0.500000
v -0.653281 0.382683 -0.653281
v -0.707107 -0.000000 -0.707107
v -0.653281 -0.382684 -0.653281
v -0.500000 -0.707107 -0.500000
v -0.270598 -0.923880 -0.270598
v -0.000000 -0.988469 -0.000000
v -0.146447 0.923880 -0.353553
v -0.270598 0.707107 -0.653281
v -0.353553 0.382683 -0.853553
v -0.382683 -0.000000 -0.923879
v -0.353553 -0.382684 -0.853553
v -0.270598 -0.707107 -0.653281
v -0.146447 -0.923880 -0.353553
v -0.000000 0.923880 -0.382683
v -0.000000 0.707107 -0.707107
v -0.000000 0.382683 -0.923879
v -0.000000 -0.000000 -1.000000
v -0.000000 -0.382684 -0.923879
v -0.000000 -0.707107 -0.707107
v -0.000000 -0.923880 -0.382683
v 0.146446 0.923880 -0.353553
v 0.270598 0.707107 -0.653281
v 0.353553 0.382683 -0.853553
v 0.382683 -0.000000 -0.923879
v 0.353553 -0.382684 -0.853553
v 0.270598 -0.707107 -0.653281
v 0.146446 -0.923880 -0.353553
v -0.000000 0.988469 -0.000000
v 0.270598 0.923880 -0.270598
v 0.500000 0.707107 -0.500000
v 0.653281 0.382683 -0.653281
v 0.707107 -0.000000 -0.707106
v 0.653281 -0.382684 -0.653281
v 0.500000 -0.707107 -0.500000
v 0.270598 -0.923880 -0.270598
v 0.353553 0.923880 -0.146446
v 0.653281 0.707107 -0.270598
v 0.853553 0.382683 -0.353553
v 0.923879 -0.000000 -0.382683
v 0.853553 -0.382684 -0.353553
v 0.653281 -0.707107 -0.270598
v 0.353553 -0.923880 -0.146446
v 0.382683 0.923880 0.000000
v 0.707106 0.707107 0.000000
v 0.923879 0.382683 0.000000
v 1.000000 -0.000000 0.000000
v 0.923879 -0.382684 0.000000
v 0.707106 -0.707107 0.000000
v 0.382683 -0.923880 0.000000
v 0.353553 0.923880 0.146447
v 0.653281 0.707107 0.270598
v 0.853553 0.382683 0.353554
v 0.923879 -0.000000 0.382684
v 0.853553 -0.382684 0.353554
v 0.653281 -0.707107 0.270598
v 0.353553 -0.923880 0.146447
v 0.270598 0.923880 0.270598
v 0.499999 0.707107 0.500000
v 0.653281 0.382683 0.653282
v 0.707106 -0.000000 0.707107
v 0.653281 -0.382684 0.653282
v 0.499999 -0.707107 0.500000
v 0.270598 -0.923880 0.270598
v 0.146446 0.923880 0.353553
v 0.270597 0.707107 0.653281
v 0.353553 0.382683 0.853553
v 0.382683 -0.000000 0.923879
v 0.353553 -0.382684 0.853553
v 0.270597 -0.707107 0.653281
v 0.146446 -0.923880 0.353553
v -0.000000 0.923880 0.382683
v -0.000000 0.707107 0.707106
v -0.000001 0.382683 0.923879
v -0.000001 -0.000000 1.000000
v -0.000001 -0.382684 0.923879
v -0.000000 -0.707107 0.707106
v -0.000000 -0.923880 0.382683
v -0.146447 0.923880 0.353553
v -0.270598 0.707107 0.653281
v -0.353554 0.382683 0.853553
v -0.382684 -0.000000 0.923879
v -0.353554 -0.382684 0.853553
v -0.270598 -0.707107 0.653281
v -0.146447 -0.923880 0.353553
v -0.270598 0.923880 0.270598
v -0.500000 0.707107 0.499999
v -0.653282 0.382683 0.653281
v -0.707107 -0.000000 0.707106
v -0.653282 -0.382684 0.653281
v -0.500000 -0.707107 0.499999
v -0.270598 -0.923880 0.270598
v -0.353553 0.923880 0.146446
v -0.653281 0.707107 0.270598
v -0.853553 0.382683 0.353553
v -0.923880 -0.000000 0.382683
v -0.853553 -0.382684 0.353553
v -0.653281 -0.707107 0.270598
v -0.353553 -0.923880 0.146446
v -0.000000 0.988469 -0.000000
v -0.000000 -0.988469 -0.000000
v -0.000000 0.988469 -0.000000
v -0.000000 -0.988469 -0.000000
v -0.000000 0.988469 -0.000000
v -0.000000 -0.988469 -0.000000
v -0.000000 0.988469 -0.000000
v -0.000000 -0.988469 -0.000000
v -0.000000 0.988469 -0.000000
v -0.000000 -0.988469 -0.000000
v -0.000000 0.988469 -0.000000
v -0.000000 -0.988469 -0.000000
v -0.000000 0.988469 -0.000000
v -0.000000 -0.988469 -0.000000
v -0.000000 0.988469 -0.000000
v -0.000000 -0.988469 -0.000000
v -0.000000 0.988469 -0.000000
v -0.000000 -0.988469 -0.000000
v -0.000000 0.988469 -0.000000
v -0.000000 -0.988469 -0.000000
v -0.000000 0.988469 -0.000000
v -0.000000 -0.988469 -0.000000
v -0.000000 0.988469 -0.000000
v -0.000000 -0.988469 -0.000000
v -0.000000 0.988469 -0.000000
v -0.000000 -0.988469 -0.000000
v -0.000000 0.988469 -0.000000
v -0.000000 -0.988469 -0.000000
v -0.000000 0.988469 -0.000000
v -0.000000 -0.988469 -0.000000
vt 0.687500 0.225028
vt 0.625000 0.225028
vt 0.625000 0.087542
vt 0.687500 0.362514
vt 0.625000 0.362514
vt 0.687500 0.500000
vt 0.625000 0.500000
vt 0.687500 0.637486
vt 0.625000 0.637486
vt 0.687500 0.774972
vt 0.625000 0.774972
vt 0.687500 0.912458
vt 0.625000 0.912458
vt 0.562500 0.225028
vt 0.562500 0.087542
vt 0.562500 0.362514
vt 0.562500 0.500000
vt 0.562500 0.637486
vt 0.562500 0.774972
vt 0.562500 0.912458
vt 0.500000 0.225028
vt 0.500000 0.362514
vt 0.500000 0.500000
vt 0.500000 0.637486
vt 0.500000 0.774972
vt 0.500000 0.912458
vt 0.500000 0.087542
vt 0.437500 0.225028
vt 0.437500 0.362514
vt 0.437500 0.500000
vt 0.437500 0.637486
vt 0.437500 0.774972
vt 0.437500 0.912458
vt 0.375000 0.225028
vt 0.375000 0.087542
vt 0.375000 0.362514
vt 0.375000 0.500000
vt 0.375000 0.637486
vt 0.375000 0.774972
vt 0.375000 0.912458
vt 0.312500 0.225028
vt 0.312500 0.087542
vt 0.312500 0.362514
vt 0.312500 0.500000
vt 0.312500 0.637486
vt 0.312500 0.774972
vt 0.312500 0.912458
vt 0.250000 0.225028
vt 0.250000 0.362514
vt 0.250000 0.500000
vt 0.250000 0.637486
vt 0.250000 0.774972
vt 0.250000 0.912458
vt 0.250000 0.087542
vt 0.187500 0.225028
vt 0.187500 0.362514
vt 0.187500 0.500000
vt 0.187500 0.637486
vt 0.187500 0.774972
vt 0.187500 0.912458
vt 0.187500 0.087542
vt 0.125000 0.225028
vt 0.125000 0.362514
vt 0.125000 0.500000
vt 0.125000 0.637486
vt 0.125000 0.774972
vt 0.125000 0.912458
vt 0.062500 0.225028
vt 0.062500 0.087542
vt 0.062500 0.362514
vt 0.062500 0.500000
vt 0.062500 0.637486
vt 0.062500 0.774972
vt 0.062500 0.912458
vt 0.000000 0.225028
vt 0.000000 0.087542
vt 0.000000 0.362514
vt 0.000000 0.500000
vt 0.000000 0.637486
vt 0.000000 0.774972
vt 0.000000 0.912458
vt 1.000000 0.087542
vt 1.000000 0.225028
vt 0.937500 0.225028
vt 1.000000 0.362514
vt 0.937500 0.362514
vt 1.000000 0.500000
vt 0.937500 0.500000
vt 1.000000 0.637486
vt 0.937500 0.637486
vt 1.000000 0.774972
vt 0.937500 0.774972
vt 1.000000 0.912458
vt 0.937500 0.912458
vt 0.875000 0.225028
vt 0.875000 0.087542
vt 0.875000 0.362514
vt 0.875000 0.500000
vt 0.875000 0.637486
vt 0.875000 0.774972
vt 0.875000 0.912458
vt 0.812500 0.225028
vt 0.812500 0.087542
vt 0.812500 0.362514
vt 0.812500 0.500000
vt 0.812500 0.637486
vt 0.812500 0.774972
vt 0.812500 0.912458
vt 0.750000 0.225028
vt 0.750000 0.087542
vt 0.750000 0.362514
vt 0.750000 0.500000
vt 0.750000 0.637486
vt 0.750000 0.774972
vt 0.750000 0.912458
vt 1.000000 1.000000
vt 0.937500 1.000000
vt 0.437500 0.087542
vt 0.375000 0.000000
vt 0.437500 0.000000
vt 0.062500 1.000000
vt 0.000000 1.000000
vt 0.625000 1.000000
vt 0.562500 1.000000
vt 0.687500 1.000000
vt 0.125000 0.087542
vt 0.062500 0.000000
vt 0.125000 0.000000
vt 0.750000 0.000000
vt 0.812500 0.000000
vt 0.250000 1.000000
vt 0.187500 1.000000
vt 0.875000 1.000000
vt 0.500000 1.000000
vt 0.312500 0.000000
vt 0.750000 1.000000
vt 0.812500 1.000000
vt 0.187500 0.000000
vt 0.687500 0.087542
vt 0.687500 0.000000
vt 0.625000 0.000000
vt 0.250000 0.000000
vt 0.000000 0.000000
vt 0.562500 0.000000
vt 0.437500 1.000000
vt 0.125000 1.000000
vt 0.937500 0.087542
vt 0.937500 0.000000
vt 1.000000 0.000000
vt 0.500000 0.000000
vt 0.375000 1.000000
vt 0.312500 1.000000
vt 0.875000 0.000000
vn -0.718800 -0.695200 0.000000
vn -0.664100 -0.695200 -0.275100
vn -0.361500 -0.920200 -0.149800
vn -0.927300 -0.374300 0.000000
vn -0.856700 -0.374300 -0.354800
vn -1.000000 0.000000 0.000000
vn -0.923900 0.000000 -0.382700
vn -0.927300 0.374300 0.000000
vn -0.856700 0.374300 -0.354800
vn -0.718800 0.695200 0.000000
vn -0.664100 0.695200 -0.275100
vn -0.391300 0.920200 0.000000
vn -0.361500 0.920200 -0.149800
vn -0.508300 -0.695200 -0.508300
vn -0.276700 -0.920200 -0.276700
vn -0.655700 -0.374300 -0.655700
vn -0.707100 0.000000 -0.707100
vn -0.655700 0.374300 -0.655700
vn -0.508300 0.695200 -0.508300
vn -0.276700 0.920200 -0.276700
vn -0.275100 -0.695200 -0.664100
vn -0.354800 -0.374300 -0.856700
vn -0.382700 0.000000 -0.923900
vn -0.354800 0.374300 -0.856700
vn -0.275100 0.695200 -0.664100
vn -0.149800 0.920200 -0.361500
vn -0.149800 -0.920200 -0.361500
vn 0.000000 -0.695200 -0.718800
vn 0.000000 -0.374300 -0.927300
vn 0.000000 0.000000 -1.000000
vn 0.000000 0.374300 -0.927300
vn 0.000000 0.695200 -0.718800
vn 0.000000 0.920200 -0.391300
vn 0.275100 -0.695200 -0.664100
vn 0.149800 -0.920200 -0.361500
vn 0.354800 -0.374300 -0.856700
vn 0.382700 0.000000 -0.923900
vn 0.354800 0.374300 -0.856700
vn 0.275100 0.695200 -0.664100
vn 0.149800 0.920200 -0.361500
vn 0.508300 -0.695200 -0.508300
vn 0.276700 -0.920200 -0.276700
vn 0.655700 -0.374300 -0.655700
vn 0.707100 0.000000 -0.707100
vn 0.655700 0.374300 -0.655700
vn 0.508300 0.695200 -0.508300
vn 0.276700 0.920200 -0.276700
vn 0.664100 -0.695200 -0.275100
vn 0.856700 -0.374300 -0.354800
vn 0.923900 0.000000 -0.382700
vn 0.856700 0.374300 -0.354800
vn 0.664100 0.695200 -0.275100
vn 0.361500 0.920200 -0.149800
vn 0.361500 -0.920200 -0.149800
vn 0.718800 -0.695200 0.000000
vn 0.927300 -0.374300 0.000000
vn 1.000000 0.000000 0.000000
vn 0.927300 0.374300 0.000000
vn 0.718800 0.695200 0.000000
vn 0.391300 0.920200 0.000000
vn 0.391300 -0.920200 0.000000
vn 0.664100 -0.695200 0.275100
vn 0.856700 -0.374300 0.354800
vn 0.923900 0.000000 0.382700
vn 0.856700 0.374300 0.354800
vn 0.664100 0.695200 0.275100
vn 0.361500 0.920200 0.149800
vn 0.508300 -0.695200 0.508300
vn 0.276700 -0.920200 0.276700
vn 0.655700 -0.374300 0.655700
vn 0.707100 0.000000 0.707100
vn 0.655700 0.374300 0.655700
vn 0.508300 0.695200 0.508300
vn 0.276700 0.920200 0.276700
vn 0.275100 -0.695200 0.664100
vn 0.149800 -0.920200 0.361500
vn 0.354800 -0.374300 0.856700
vn 0.382700 0.000000 0.923900
vn 0.354800 0.374300 0.856700
vn 0.275100 0.695200 0.664100
vn 0.149800 0.920200 0.361500
vn 0.000000 -0.695200 0.718800
vn 0.000000 -0.374300 0.927300
vn 0.000000 0.000000 1.000000
vn 0.000000 0.374300 0.927300
vn 0.000000 0.695200 0.718800
vn 0.000000 0.920200 0.391300
vn -0.275100 -0.695200 0.664100
vn -0.149800 -0.920200 0.361500
vn -0.354800 -0.374300 0.856700
vn -0.382700 0.000000 0.923900
vn -0.354800 0.374300 0.856700
vn -0.275100 0.695200 0.664100
vn -0.149800 0.920200 0.361500
vn -0.508300 -0.695200 0.508300
vn -0.276700 -0.920200 0.276700
vn -0.655700 -0.374300 0.655700
vn -0.707100 0.000000 0.707100
vn -0.655700 0.374300 0.655700
vn -0.508300 0.695200 0.508300
vn -0.276700 0.920200 0.276700
vn -0.664100 -0.695200 0.275100
vn -0.361500 -0.920200 0.149800
vn -0.856700 -0.374300 0.354800
vn -0.923900 0.000000 0.382700
vn -0.856700 0.374300 0.354800
vn -0.664100 0.695200 0.275100
vn -0.361500 0.920200 0.149800
vn 0.041200 0.985700 0.163000
vn 0.000000 0.986100 0.166400
vn 0.000000 -0.920200 -0.391300
vn 0.073300 -0.986000 -0.149800
vn 0.000000 -0.986100 -0.166400
vn 0.111100 0.986000 0.124200
vn -0.152000 0.986000 -0.068000
vn -0.132300 0.985800 -0.103000
vn -0.166400 0.986100 0.000000
vn 0.361500 -0.920200 0.149800
vn 0.111100 -0.986000 0.124200
vn 0.155100 -0.986000 0.060300
vn -0.155100 -0.986000 0.060300
vn -0.115500 -0.986000 0.119800
vn 0.152000 0.986000 -0.068000
vn 0.166400 0.986100 0.000000
vn -0.051900 0.986000 0.158600
vn -0.069900 0.986000 -0.151200
vn 0.120300 -0.986000 -0.115000
vn -0.155100 0.986000 0.060300
vn -0.115500 0.986000 0.119800
vn 0.166400 -0.986100 0.000000
vn -0.391300 -0.920200 0.000000
vn -0.166400 -0.986100 0.000000
vn -0.152000 -0.986000 -0.068000
vn 0.152000 -0.986000 -0.068000
vn 0.041200 -0.985700 0.163000
vn -0.132300 -0.985800 -0.103000
vn 0.000000 0.986100 -0.166400
vn 0.155100 0.986000 0.060300
vn 0.000000 -0.920200 0.391300
vn 0.000000 -0.986100 0.166400
vn -0.069900 -0.986000 -0.151200
vn 0.073300 0.986000 -0.149800
vn 0.120300 0.986000 -0.115000
vn -0.051900 -0.986000 0.158600
usemtl None
s 1
f 6/1/1 13/2/2 14/3/3
f 6/1/1 5/4/4 12/5/5
f 4/6/6 11/7/7 12/5/5
f 3/8/8 10/9/9 11/7/7
f 2/10/10 9/11/11 10/9/9
f 1/12/12 8/13/13 9/11/11
f 13/2/2 20/14/14 21/15/15
f 12/5/5 19/16/16 20/14/14
f 11/7/7 18/17/17 19/16/16
f 10/9/9 17/18/18 18/17/17
f 9/11/11 16/19/19 17/18/18
f 8/13/13 15/20/20 16/19/19
f 21/15/15 20/14/14 28/21/21
f 19/16/16 27/22/22 28/21/21
f 18/17/17 26/23/23 27/22/22
f 18/17/17 17/18/18 25/24/24
f 16/19/19 24/25/25 25/24/24
f 16/19/19 15/20/20 23/26/26
f 29/27/27 28/21/21 35/28/28
f 27/22/22 34/29/29 35/28/28
f 26/23/23 33/30/30 34/29/29
f 25/24/24 32/31/31 33/30/30
f 24/25/25 31/32/32 32/31/31
f 24/25/25 23/26/26 30/33/33
f 35/28/28 42/34/34 43/35/35
f 34/29/29 41/36/36 42/34/34
f 33/30/30 40/37/37 41/36/36
f 32/31/31 39/38/38 40/37/37
f 32/31/31 31/32/32 38/39/39
f 31/32/32 30/33/33 37/40/40
f 42/34/34 50/41/41 51/42/42
f 41/36/36 49/43/43 50/41/41
f 40/37/37 48/44/44 49/43/43
f 39/38/38 47/45/45 48/44/44
f 38/39/39 46/46/46 47/45/45
f 38/39/39 37/40/40 45/47/47
f 51/42/42 50/41/41 57/48/48
f 49/43/43 56/49/49 57/48/48
f 48/44/44 55/50/50 56/49/49
f 48/44/44 47/45/45 54/51/51
f 46/46/46 53/52/52 54/51/51
f 46/46/46 45/47/47 52/53/53
f 58/54/54 57/48/48 64/55/55
f 56/49/49 63/56/56 64/55/55
f 55/50/50 62/57/57 63/56/56
f 54/51/51 61/58/58 62/57/57
f 53/52/52 60/59/59 61/58/58
f 53/52/52 52/53/53 59/60/60
f 65/61/61 64/55/55 71/62/62
f 63/56/56 70/63/63 71/62/62
f 62/57/57 69/64/64 70/63/63
f 61/58/58 68/65/65 69/64/64
f 60/59/59 67/66/66 68/65/65
f 60/59/59 59/60/60 66/67/67
f 71/62/62 78/68/68 79/69/69
f 71/62/62 70/63/63 77/70/70
f 69/64/64 76/71/71 77/70/70
f 69/64/64 68/65/65 75/72/72
f 67/66/66 74/73/73 75/72/72
f 66/67/67 73/74/74 74/73/73
f 78/68/68 85/75/75 86/76/76
f 77/70/70 84/77/77 85/75/75
f 76/71/71 83/78/78 84/77/77
f 75/72/72 82/79/79 83/78/78
f 75/72/72 74/73/73 81/80/80
f 74/73/73 73/74/74 80/81/81
f 86/82/76 85/83/75 92/84/82
f 85/83/75 84/85/77 91/86/83
f 83/87/78 90/88/84 91/86/83
f 82/89/79 89/90/85 90/88/84
f 81/91/80 88/92/86 89/90/85
f 81/91/80 80/93/81 87/94/87
f 92/84/82 99/95/88 100/96/89
f 92/84/82 91/86/83 98/97/90
f 90/88/84 97/98/91 98/97/90
f 90/88/84 89/90/85 96/99/92
f 88/92/86 95/100/93 96/99/92
f 88/92/86 87/94/87 94/101/94
f 99/95/88 106/102/95 107/103/96
f 98/97/90 105/104/97 106/102/95
f 97/98/91 104/105/98 105/104/97
f 97/98/91 96/99/92 103/106/99
f 95/100/93 102/107/100 103/106/99
f 95/100/93 94/101/94 101/108/101
f 106/102/95 113/109/102 114/110/103
f 105/104/97 112/111/104 113/109/102
f 104/105/98 111/112/105 112/111/104
f 103/106/99 110/113/106 111/112/105
f 102/107/100 109/114/107 110/113/106
f 102/107/100 101/108/101 108/115/108
f 87/94/87 80/93/81 135/116/109 137/117/110
f 36/118/111 43/35/35 124/119/112 122/120/113
f 80/81/81 73/74/74 133/121/114 135/122/109
f 15/20/20 8/13/13 115/123/115 117/124/116
f 8/13/13 1/12/12 44/125/117 115/123/115
f 72/126/118 79/69/69 134/127/119 132/128/120
f 107/103/96 114/110/103 144/129/121 142/130/122
f 59/60/60 52/53/53 127/131/123 129/132/124
f 94/101/94 87/94/87 137/117/110 139/133/125
f 23/26/26 15/20/20 117/124/116 119/134/126
f 43/35/35 51/42/42 126/135/127 124/119/112
f 1/12/12 108/115/108 143/136/128 44/125/117
f 101/108/101 94/101/94 139/133/125 141/137/129
f 65/61/61 72/126/118 132/128/120 130/138/130
f 114/110/103 7/139/131 22/140/132 144/129/121
f 7/139/131 14/3/3 116/141/133 22/140/132
f 51/42/42 58/54/54 128/142/134 126/135/127
f 79/69/69 86/76/76 136/143/135 134/127/119
f 14/3/3 21/15/15 118/144/136 116/141/133
f 30/33/33 23/26/26 119/134/126 121/145/137
f 108/115/108 101/108/101 141/137/129 143/136/128
f 66/67/67 59/60/60 129/132/124 131/146/138
f 58/54/54 65/61/61 130/138/130 128/142/134
f 86/82/76 93/147/139 138/148/140 136/149/135
f 21/15/15 29/27/27 120/150/141 118/144/136
f 37/40/40 30/33/33 121/145/137 123/151/142
f 45/47/47 37/40/40 123/151/142 125/152/143
f 73/74/74 66/67/67 131/146/138 133/121/114
f 29/27/27 36/118/111 122/120/113 120/150/141
f 93/147/139 100/96/89 140/153/144 138/148/140
f 100/96/89 107/103/96 142/130/122 140/153/144
f 113/109/102 6/1/1 7/139/131
f 112/111/104 5/4/4 6/1/1
f 111/112/105 4/6/6 5/4/4
f 111/112/105 110/113/106 3/8/8
f 110/113/106 109/114/107 2/10/10
f 109/114/107 108/115/108 1/12/12
f 52/53/53 45/47/47 125/152/143 127/131/123
f 7/139/131 6/1/1 14/3/3
f 13/2/2 6/1/1 12/5/5
f 5/4/4 4/6/6 12/5/5
f 4/6/6 3/8/8 11/7/7
f 3/8/8 2/10/10 10/9/9
f 2/10/10 1/12/12 9/11/11
f 14/3/3 13/2/2 21/15/15
f 13/2/2 12/5/5 20/14/14
f 12/5/5 11/7/7 19/16/16
f 11/7/7 10/9/9 18/17/17
f 10/9/9 9/11/11 17/18/18
f 9/11/11 8/13/13 16/19/19
f 29/27/27 21/15/15 28/21/21
f 20/14/14 19/16/16 28/21/21
f 19/16/16 18/17/17 27/22/22
f 26/23/23 18/17/17 25/24/24
f 17/18/18 16/19/19 25/24/24
f 24/25/25 16/19/19 23/26/26
f 36/118/111 29/27/27 35/28/28
f 28/21/21 27/22/22 35/28/28
f 27/22/22 26/23/23 34/29/29
f 26/23/23 25/24/24 33/30/30
f 25/24/24 24/25/25 32/31/31
f 31/32/32 24/25/25 30/33/33
f 36/118/111 35/28/28 43/35/35
f 35/28/28 34/29/29 42/34/34
f 34/29/29 33/30/30 41/36/36
f 33/30/30 32/31/31 40/37/37
f 39/38/38 32/31/31 38/39/39
f 38/39/39 31/32/32 37/40/40
f 43/35/35 42/34/34 51/42/42
f 42/34/34 41/36/36 50/41/41
f 41/36/36 40/37/37 49/43/43
f 40/37/37 39/38/38 48/44/44
f 39/38/38 38/39/39 47/45/45
f 46/46/46 38/39/39 45/47/47
f 58/54/54 51/42/42 57/48/48
f 50/41/41 49/43/43 57/48/48
f 49/43/43 48/44/44 56/49/49
f 55/50/50 48/44/44 54/51/51
f 47/45/45 46/46/46 54/51/51
f 53/52/52 46/46/46 52/53/53
f 65/61/61 58/54/54 64/55/55
f 57/48/48 56/49/49 64/55/55
f 56/49/49 55/50/50 63/56/56
f 55/50/50 54/51/51 62/57/57
f 54/51/51 53/52/52 61/58/58
f 60/59/59 53/52/52 59/60/60
f 72/126/118 65/61/61 71/62/62
f 64/55/55 63/56/56 71/62/62
f 63/56/56 62/57/57 70/63/63
f 62/57/57 61/58/58 69/64/64
f 61/58/58 60/59/59 68/65/65
f 67/66/66 60/59/59 66/67/67
f 72/126/118 71/62/62 79/69/69
f 78/68/68 71/62/62 77/70/70
f 70/63/63 69/64/64 77/70/70
f 76/71/71 69/64/64 75/72/72
f 68/65/65 67/66/66 75/72/72
f 67/66/66 66/67/67 74/73/73
f 79/69/69 78/68/68 86/76/76
f 78/68/68 77/70/70 85/75/75
f 77/70/70 76/71/71 84/77/77
f 76/71/71 75/72/72 83/78/78
f 82/79/79 75/72/72 81/80/80
f 81/80/80 74/73/73 80/81/81
f 93/147/139 86/82/76 92/84/82
f 92/84/82 85/83/75 91/86/83
f 84/85/77 83/87/78 91/86/83
f 83/87/78 82/89/79 90/88/84
f 82/89/79 81/91/80 89/90/85
f 88/92/86 81/91/80 87/94/87
f 93/147/139 92/84/82 100/96/89
f 99/95/88 92/84/82 98/97/90
f 91/86/83 90/88/84 98/97/90
f 97/98/91 90/88/84 96/99/92
f 89/90/85 88/92/86 96/99/92
f 95/100/93 88/92/86 94/101/94
f 100/96/89 99/95/88 107/103/96
f 99/95/88 98/97/90 106/102/95
f 98/97/90 97/98/91 105/104/97
f 104/105/98 97/98/91 103/106/99
f 96/99/92 95/100/93 103/106/99
f 102/107/100 95/100/93 101/108/101
f 107/103/96 106/102/95 114/110/103
f 106/102/95 105/104/97 113/109/102
f 105/104/97 104/105/98 112/111/104
f 104/105/98 103/106/99 111/112/105
f 103/106/99 102/107/100 110/113/106
f 109/114/107 102/107/100 108/115/108
f 114/110/103 113/109/102 7/139/131
f 113/109/102 112/111/104 6/1/1
f 112/111/104 111/112/105 5/4/4
f 4/6/6 111/112/105 3/8/8
f 3/8/8 110/113/106 2/10/10
f 2/10/10 109/114/107 1/12/12