# This file uses centimeters as units for non-parametric coordinates.

mtllib Shield_01.mtl
g default
v -6.272523 -4.791780 2.038066
v -5.335726 -4.791780 3.876632
v -3.876632 -4.791780 5.335726
v -2.038066 -4.791780 6.272522
v -0.000000 -4.791780 6.595320
v 2.038066 -4.791780 6.272522
v 3.876631 -4.791780 5.335725
v 5.335725 -4.791780 3.876632
v 6.272521 -4.791780 2.038066
v -6.908209 -3.701050 2.244613
v -5.876474 -3.701050 4.269508
v -4.269508 -3.701050 5.876473
v -2.244613 -3.701050 6.908209
v -0.000000 -3.701050 7.263720
v 2.244613 -3.701050 6.908208
v 4.269507 -3.701050 5.876473
v 5.876472 -3.701050 4.269508
v 6.908208 -3.701050 2.244613
v -7.373793 -2.519188 2.395891
v -6.272523 -2.519188 4.557254
v -4.557254 -2.519188 6.272522
v -2.395891 -2.519188 7.373792
v -0.000000 -2.519188 7.753264
v 2.395890 -2.519188 7.373792
v 4.557253 -2.519188 6.272522
v 6.272521 -2.519188 4.557254
v 7.373791 -2.519188 2.395890
v -7.657809 -1.275294 2.488173
v -6.514121 -1.275294 4.732786
v -4.732786 -1.275294 6.514121
v -2.488173 -1.275294 7.657808
v -0.000000 -1.275294 8.051896
v 2.488172 -1.275294 7.657808
v 4.732785 -1.275294 6.514120
v 6.514120 -1.275294 4.732786
v 7.657808 -1.275294 2.488172
v -7.753265 0.000000 2.519188
v -6.595321 0.000000 4.791781
v -4.791781 0.000000 6.595320
v -2.519188 0.000000 7.753264
v -0.000000 0.000000 8.152264
v 2.519188 0.000000 7.753263
v 4.791780 0.000000 6.595320
v 6.595319 0.000000 4.791780
v 7.753263 0.000000 2.519188
v -7.657809 1.275294 2.488173
v -6.514121 1.275294 4.732786
v -4.732786 1.275294 6.514121
v -2.488173 1.275294 7.657808
v -0.000000 1.275294 8.051896
v 2.488172 1.275294 7.657808
v 4.732785 1.275294 6.514120
v 6.514120 1.275294 4.732786
v 7.657808 1.275294 2.488172
v -7.373793 2.519188 2.395891
v -6.272523 2.519188 4.557254
v -4.557254 2.519188 6.272522
v -2.395891 2.519188 7.373792
v -0.000000 2.519188 7.753264
v 2.395890 2.519188 7.373792
v 4.557253 2.519188 6.272522
v 6.272521 2.519188 4.557254
v 7.373791 2.519188 2.395890
v -6.908209 3.701050 2.244613
v -5.876474 3.701050 4.269508
v -4.269508 3.701050 5.876473
v -2.244613 3.701050 6.908209
v -0.000000 3.701050 7.263720
v 2.244613 3.701050 6.908208
v 4.269507 3.701050 5.876473
v 5.876472 3.701050 4.269508
v 6.908208 3.701050 2.244613
v -6.272523 4.791780 2.038066
v -5.335726 4.791780 3.876632
v -3.876632 4.791780 5.335726
v -2.038066 4.791780 6.272522
v -0.000000 4.791780 6.595320
v 2.038066 4.791780 6.272522
v 3.876631 4.791780 5.335725
v 5.335725 4.791780 3.876632
v 6.272521 4.791780 2.038066
vt 0.036750 0.036697
vt 0.152576 0.036697
vt 0.268402 0.036697
vt 0.384227 0.036697
vt 0.500053 0.036697
vt 0.615879 0.036697
vt 0.731705 0.036697
vt 0.847531 0.036697
vt 0.963357 0.036697
vt 0.036750 0.152522
vt 0.152576 0.152522
vt 0.268402 0.152522
vt 0.384227 0.152522
vt 0.500053 0.152522
vt 0.615879 0.152522
vt 0.731705 0.152522
vt 0.847531 0.152522
vt 0.963357 0.152522
vt 0.036750 0.268348
vt 0.152576 0.268348
vt 0.268402 0.268348
vt 0.384227 0.268348
vt 0.500053 0.268348
vt 0.615879 0.268348
vt 0.731705 0.268348
vt 0.847531 0.268348
vt 0.963357 0.268348
vt 0.036750 0.384174
vt 0.152576 0.384174
vt 0.268402 0.384174
vt 0.384227 0.384174
vt 0.500053 0.384174
vt 0.615879 0.384174
vt 0.731705 0.384174
vt 0.847531 0.384174
vt 0.963357 0.384174
vt 0.036750 0.500000
vt 0.152576 0.500000
vt 0.268402 0.500000
vt 0.384227 0.500000
vt 0.500053 0.500000
vt 0.615879 0.500000
vt 0.731705 0.500000
vt 0.847531 0.500000
vt 0.963357 0.500000
vt 0.036750 0.615826
vt 0.152576 0.615826
vt 0.268402 0.615826
vt 0.384227 0.615826
vt 0.500053 0.615826
vt 0.615879 0.615826
vt 0.731705 0.615826
vt 0.847531 0.615826
vt 0.963357 0.615826
vt 0.036750 0.731652
vt 0.152576 0.731652
vt 0.268402 0.731652
vt 0.384227 0.731652
vt 0.500053 0.731652
vt 0.615879 0.731652
vt 0.731705 0.731652
vt 0.847531 0.731652
vt 0.963357 0.731652
vt 0.036750 0.847478
vt 0.152576 0.847478
vt 0.268402 0.847478
vt 0.384227 0.847478
vt 0.500053 0.847478
vt 0.615879 0.847478
vt 0.731705 0.847478
vt 0.847531 0.847478
vt 0.963357 0.847478
vt 0.036750 0.963304
vt 0.152576 0.963304
vt 0.268402 0.963304
vt 0.384227 0.963304
vt 0.500053 0.963304
vt 0.615879 0.963304
vt 0.731705 0.963304
vt 0.847531 0.963304
vt 0.963357 0.963304
vn -0.762258 -0.517798 0.388390
vn -0.692431 -0.522494 0.497534
vn -0.798261 -0.444238 0.406734
vn -0.725086 -0.448937 0.522213
vn -0.504795 -0.522494 0.687156
vn -0.528225 -0.448937 0.720718
vn -0.267745 -0.522493 0.809514
vn -0.279658 -0.448937 0.848674
vn -0.004487 -0.522493 0.852631
vn -0.003716 -0.448937 0.893556
vn 0.259210 -0.522493 0.812288
vn 0.272590 -0.448937 0.850970
vn 0.497534 -0.522493 0.692431
vn 0.522213 -0.448937 0.725086
vn 0.687156 -0.522494 0.504795
vn 0.720718 -0.448937 0.528225
vn 0.762259 -0.517798 0.388390
vn 0.798026 -0.444769 0.406614
vn -0.849496 -0.301671 0.432840
vn -0.771887 -0.305397 0.557605
vn -0.561799 -0.305397 0.768840
vn -0.296718 -0.305397 0.904816
vn -0.002592 -0.305397 0.952222
vn 0.291787 -0.305397 0.906417
vn 0.557605 -0.305397 0.771887
vn 0.768840 -0.305397 0.561799
vn 0.849323 -0.302284 0.432752
vn -0.880605 -0.152357 0.448691
vn -0.800078 -0.154547 0.579647
vn -0.581799 -0.154547 0.798514
vn -0.306569 -0.154547 0.939218
vn -0.001330 -0.154547 0.987984
vn 0.304039 -0.154547 0.940040
vn 0.579647 -0.154547 0.800078
vn 0.798514 -0.154547 0.581799
vn 0.880514 -0.153016 0.448644
vn -0.891006 0.000336 0.453991
vn -0.809017 0.000000 0.587785
vn -0.587785 0.000000 0.809017
vn -0.309017 0.000000 0.951057
vn 0.000000 0.000000 1.000000
vn 0.309017 0.000000 0.951057
vn 0.587785 -0.000000 0.809017
vn 0.809017 0.000000 0.587785
vn 0.891006 -0.000336 0.453990
vn -0.880514 0.153015 0.448644
vn -0.798514 0.154547 0.581799
vn -0.579647 0.154547 0.800078
vn -0.304039 0.154547 0.940040
vn 0.001330 0.154547 0.987985
vn 0.306569 0.154547 0.939218
vn 0.581799 0.154547 0.798514
vn 0.800078 0.154547 0.579647
vn 0.880604 0.152358 0.448690
vn -0.849323 0.302284 0.432752
vn -0.768840 0.305397 0.561799
vn -0.557605 0.305397 0.771887
vn -0.291787 0.305397 0.906418
vn 0.002592 0.305397 0.952222
vn 0.296718 0.305397 0.904815
vn 0.561799 0.305397 0.768840
vn 0.771887 0.305397 0.557605
vn 0.849496 0.301671 0.432840
vn -0.798026 0.444769 0.406615
vn -0.720718 0.448937 0.528225
vn -0.522213 0.448937 0.725086
vn -0.272590 0.448937 0.850970
vn 0.003716 0.448937 0.893556
vn 0.279658 0.448937 0.848674
vn 0.528225 0.448937 0.720718
vn 0.725086 0.448937 0.522213
vn 0.798261 0.444238 0.406734
vn -0.762258 0.517799 0.388390
vn -0.687155 0.522494 0.504795
vn -0.497533 0.522494 0.692431
vn -0.259210 0.522493 0.812288
vn 0.004487 0.522493 0.852631
vn 0.267746 0.522493 0.809514
vn 0.504794 0.522493 0.687156
vn 0.692431 0.522493 0.497534
vn 0.762258 0.517799 0.388390
s 1
g pSphere1
usemtl initialShadingGroup
f 1/1/1 2/2/2 10/10/3
f 10/10/3 2/2/2 11/11/4
f 2/2/2 3/3/5 11/11/4
f 11/11/4 3/3/5 12/12/6
f 3/3/5 4/4/7 12/12/6
f 12/12/6 4/4/7 13/13/8
f 4/4/7 5/5/9 13/13/8
f 13/13/8 5/5/9 14/14/10
f 5/5/9 6/6/11 14/14/10
f 14/14/10 6/6/11 15/15/12
f 6/6/11 7/7/13 15/15/12
f 15/15/12 7/7/13 16/16/14
f 7/7/13 8/8/15 16/16/14
f 16/16/14 8/8/15 17/17/16
f 8/8/15 9/9/17 17/17/16
f 17/17/16 9/9/17 18/18/18
f 10/10/3 11/11/4 19/19/19
f 19/19/19 11/11/4 20/20/20
f 11/11/4 12/12/6 20/20/20
f 20/20/20 12/12/6 21/21/21
f 12/12/6 13/13/8 21/21/21
f 21/21/21 13/13/8 22/22/22
f 13/13/8 14/14/10 22/22/22
f 22/22/22 14/14/10 23/23/23
f 14/14/10 15/15/12 23/23/23
f 23/23/23 15/15/12 24/24/24
f 15/15/12 16/16/14 24/24/24
f 24/24/24 16/16/14 25/25/25
f 16/16/14 17/17/16 25/25/25
f 25/25/25 17/17/16 26/26/26
f 17/17/16 18/18/18 26/26/26
f 26/26/26 18/18/18 27/27/27
f 19/19/19 20/20/20 28/28/28
f 28/28/28 20/20/20 29/29/29
f 20/20/20 21/21/21 29/29/29
f 29/29/29 21/21/21 30/30/30
f 21/21/21 22/22/22 30/30/30
f 30/30/30 22/22/22 31/31/31
f 22/22/22 23/23/23 31/31/31
f 31/31/31 23/23/23 32/32/32
f 23/23/23 24/24/24 32/32/32
f 32/32/32 24/24/24 33/33/33
f 24/24/24 25/25/25 33/33/33
f 33/33/33 25/25/25 34/34/34
f 25/25/25 26/26/26 34/34/34
f 34/34/34 26/26/26 35/35/35
f 26/26/26 27/27/27 35/35/35
f 35/35/35 27/27/27 36/36/36
f 28/28/28 29/29/29 37/37/37
f 37/37/37 29/29/29 38/38/38
f 29/29/29 30/30/30 38/38/38
f 38/38/38 30/30/30 39/39/39
f 30/30/30 31/31/31 39/39/39
f 39/39/39 31/31/31 40/40/40
f 31/31/31 32/32/32 40/40/40
f 40/40/40 32/32/32 41/41/41
f 32/32/32 33/33/33 41/41/41
f 41/41/41 33/33/33 42/42/42
f 33/33/33 34/34/34 42/42/42
f 42/42/42 34/34/34 43/43/43
f 34/34/34 35/35/35 43/43/43
f 43/43/43 35/35/35 44/44/44
f 35/35/35 36/36/36 44/44/44
f 44/44/44 36/36/36 45/45/45
f 37/37/37 38/38/38 46/46/46
f 46/46/46 38/38/38 47/47/47
f 38/38/38 39/39/39 47/47/47
f 47/47/47 39/39/39 48/48/48
f 39/39/39 40/40/40 48/48/48
f 48/48/48 40/40/40 49/49/49
f 40/40/40 41/41/41 49/49/49
f 49/49/49 41/41/41 50/50/50
f 41/41/41 42/42/42 50/50/50
f 50/50/50 42/42/42 51/51/51
f 42/42/42 43/43/43 51/51/51
f 51/51/51 43/43/43 52/52/52
f 43/43/43 44/44/44 52/52/52
f 52/52/52 44/44/44 53/53/53
f 44/44/44 45/45/45 53/53/53
f 53/53/53 45/45/45 54/54/54
f 46/46/46 47/47/47 55/55/55
f 55/55/55 47/47/47 56/56/56
f 47/47/47 48/48/48 56/56/56
f 56/56/56 48/48/48 57/57/57
f 48/48/48 49/49/49 57/57/57
f 57/57/57 49/49/49 58/58/58
f 49/49/49 50/50/50 58/58/58
f 58/58/58 50/50/50 59/59/59
f 50/50/50 51/51/51 59/59/59
f 59/59/59 51/51/51 60/60/60
f 51/51/51 52/52/52 60/60/60
f 60/60/60 52/52/52 61/61/61
f 52/52/52 53/53/53 61/61/61
f 61/61/61 53/53/53 62/62/62
f 53/53/53 54/54/54 62/62/62
f 62/62/62 54/54/54 63/63/63
f 55/55/55 56/56/56 64/64/64
f 64/64/64 56/56/56 65/65/65
f 56/56/56 57/57/57 65/65/65
f 65/65/65 57/57/57 66/66/66
f 57/57/57 58/58/58 66/66/66
f 66/66/66 58/58/58 67/67/67
f 58/58/58 59/59/59 67/67/67
f 67/67/67 59/59/59 68/68/68
f 59/59/59 60/60/60 68/68/68
f 68/68/68 60/60/60 69/69/69
f 60/60/60 61/61/61 69/69/69
f 69/69/69 61/61/61 70/70/70
f 61/61/61 62/62/62 70/70/70
f 70/70/70 62/62/62 71/71/71
f 62/62/62 63/63/63 71/71/71
f 71/71/71 63/63/63 72/72/72
f 64/64/64 65/65/65 73/73/73
f 73/73/73 65/65/65 74/74/74
f 65/65/65 66/66/66 74/74/74
f 74/74/74 66/66/66 75/75/75
f 66/66/66 67/67/67 75/75/75
f 75/75/75 67/67/67 76/76/76
f 67/67/67 68/68/68 76/76/76
f 76/76/76 68/68/68 77/77/77
f 68/68/68 69/69/69 77/77/77
f 77/77/77 69/69/69 78/78/78
f 69/69/69 70/70/70 78/78/78
f 78/78/78 70/70/70 79/79/79
f 70/70/70 71/71/71 79/79/79
f 79/79/79 71/71/71 80/80/80
f 71/71/71 72/72/72 80/80/80
f 80/80/80 72/72/72 81/81/81
g default
v -6.272523 -4.791780 2.038066
v -5.335726 -4.791780 3.876632
v -3.876632 -4.791780 5.335726
v -2.038066 -4.791780 6.272522
v -0.000000 -4.791780 6.595320
v 2.038066 -4.791780 6.272522
v 3.876631 -4.791780 5.335725
v 5.335725 -4.791780 3.876632
v 6.272521 -4.791780 2.038066
v -6.908209 -3.701050 2.244613
v -5.876474 -3.701050 4.269508
v -4.269508 -3.701050 5.876473
v -2.244613 -3.701050 6.908209
v -0.000000 -3.701050 7.263720
v 2.244613 -3.701050 6.908208
v 4.269507 -3.701050 5.876473
v 5.876472 -3.701050 4.269508
v 6.908208 -3.701050 2.244613
v -7.373793 -2.519188 2.395891
v -6.272523 -2.519188 4.557254
v -4.557254 -2.519188 6.272522
v -2.395891 -2.519188 7.373792
v -0.000000 -2.519188 7.753264
v 2.395890 -2.519188 7.373792
v 4.557253 -2.519188 6.272522
v 6.272521 -2.519188 4.557254
v 7.373791 -2.519188 2.395890
v -7.657809 -1.275294 2.488173
v -6.514121 -1.275294 4.732786
v -4.732786 -1.275294 6.514121
v -2.488173 -1.275294 7.657808
v -0.000000 -1.275294 8.051896
v 2.488172 -1.275294 7.657808
v 4.732785 -1.275294 6.514120
v 6.514120 -1.275294 4.732786
v 7.657808 -1.275294 2.488172
v -7.753265 0.000000 2.519188
v -6.595321 0.000000 4.791781
v -4.791781 0.000000 6.595320
v -2.519188 0.000000 7.753264
v -0.000000 0.000000 8.152264
v 2.519188 0.000000 7.753263
v 4.791780 0.000000 6.595320
v 6.595319 0.000000 4.791780
v 7.753263 0.000000 2.519188
v -7.657809 1.275294 2.488173
v -6.514121 1.275294 4.732786
v -4.732786 1.275294 6.514121
v -2.488173 1.275294 7.657808
v -0.000000 1.275294 8.051896
v 2.488172 1.275294 7.657808
v 4.732785 1.275294 6.514120
v 6.514120 1.275294 4.732786
v 7.657808 1.275294 2.488172
v -7.373793 2.519188 2.395891
v -6.272523 2.519188 4.557254
v -4.557254 2.519188 6.272522
v -2.395891 2.519188 7.373792
v -0.000000 2.519188 7.753264
v 2.395890 2.519188 7.373792
v 4.557253 2.519188 6.272522
v 6.272521 2.519188 4.557254
v 7.373791 2.519188 2.395890
v -6.908209 3.701050 2.244613
v -5.876474 3.701050 4.269508
v -4.269508 3.701050 5.876473
v -2.244613 3.701050 6.908209
v -0.000000 3.701050 7.263720
v 2.244613 3.701050 6.908208
v 4.269507 3.701050 5.876473
v 5.876472 3.701050 4.269508
v 6.908208 3.701050 2.244613
v -6.272523 4.791780 2.038066
v -5.335726 4.791780 3.876632
v -3.876632 4.791780 5.335726
v -2.038066 4.791780 6.272522
v -0.000000 4.791780 6.595320
v 2.038066 4.791780 6.272522
v 3.876631 4.791780 5.335725
v 5.335725 4.791780 3.876632
v 6.272521 4.791780 2.038066
vt 0.036750 0.036697
vt 0.152576 0.036697
vt 0.268402 0.036697
vt 0.384227 0.036697
vt 0.500053 0.036697
vt 0.615879 0.036697
vt 0.731705 0.036697
vt 0.847531 0.036697
vt 0.963357 0.036697
vt 0.036750 0.152522
vt 0.152576 0.152522
vt 0.268402 0.152522
vt 0.384227 0.152522
vt 0.500053 0.152522
vt 0.615879 0.152522
vt 0.731705 0.152522
vt 0.847531 0.152522
vt 0.963357 0.152522
vt 0.036750 0.268348
vt 0.152576 0.268348
vt 0.268402 0.268348
vt 0.384227 0.268348
vt 0.500053 0.268348
vt 0.615879 0.268348
vt 0.731705 0.268348
vt 0.847531 0.268348
vt 0.963357 0.268348
vt 0.036750 0.384174
vt 0.152576 0.384174
vt 0.268402 0.384174
vt 0.384227 0.384174
vt 0.500053 0.384174
vt 0.615879 0.384174
vt 0.731705 0.384174
vt 0.847531 0.384174
vt 0.963357 0.384174
vt 0.036750 0.500000
vt 0.152576 0.500000
vt 0.268402 0.500000
vt 0.384227 0.500000
vt 0.500053 0.500000
vt 0.615879 0.500000
vt 0.731705 0.500000
vt 0.847531 0.500000
vt 0.963357 0.500000
vt 0.036750 0.615826
vt 0.152576 0.615826
vt 0.268402 0.615826
vt 0.384227 0.615826
vt 0.500053 0.615826
vt 0.615879 0.615826
vt 0.731705 0.615826
vt 0.847531 0.615826
vt 0.963357 0.615826
vt 0.036750 0.731652
vt 0.152576 0.731652
vt 0.268402 0.731652
vt 0.384227 0.731652
vt 0.500053 0.731652
vt 0.615879 0.731652
vt 0.731705 0.731652
vt 0.847531 0.731652
vt 0.963357 0.731652
vt 0.036750 0.847478
vt 0.152576 0.847478
vt 0.268402 0.847478
vt 0.384227 0.847478
vt 0.500053 0.847478
vt 0.615879 0.847478
vt 0.731705 0.847478
vt 0.847531 0.847478
vt 0.963357 0.847478
vt 0.036750 0.963304
vt 0.152576 0.963304
vt 0.268402 0.963304
vt 0.384227 0.963304
vt 0.500053 0.963304
vt 0.615879 0.963304
vt 0.731705 0.963304
vt 0.847531 0.963304
vt 0.963357 0.963304
vn -0.762258 -0.517798 0.388390
vn -0.692431 -0.522494 0.497534
vn -0.798261 -0.444238 0.406734
vn -0.725086 -0.448937 0.522213
vn -0.504795 -0.522494 0.687156
vn -0.528225 -0.448937 0.720718
vn -0.267745 -0.522493 0.809514
vn -0.279658 -0.448937 0.848674
vn -0.004487 -0.522493 0.852631
vn -0.003716 -0.448937 0.893556
vn 0.259210 -0.522493 0.812288
vn 0.272590 -0.448937 0.850970
vn 0.497534 -0.522493 0.692431
vn 0.522213 -0.448937 0.725086
vn 0.687156 -0.522494 0.504795
vn 0.720718 -0.448937 0.528225
vn 0.762259 -0.517798 0.388390
vn 0.798026 -0.444769 0.406614
vn -0.849496 -0.301671 0.432840
vn -0.771887 -0.305397 0.557605
vn -0.561799 -0.305397 0.768840
vn -0.296718 -0.305397 0.904816
vn -0.002592 -0.305397 0.952222
vn 0.291787 -0.305397 0.906417
vn 0.557605 -0.305397 0.771887
vn 0.768840 -0.305397 0.561799
vn 0.849323 -0.302284 0.432752
vn -0.880605 -0.152357 0.448691
vn -0.800078 -0.154547 0.579647
vn -0.581799 -0.154547 0.798514
vn -0.306569 -0.154547 0.939218
vn -0.001330 -0.154547 0.987984
vn 0.304039 -0.154547 0.940040
vn 0.579647 -0.154547 0.800078
vn 0.798514 -0.154547 0.581799
vn 0.880514 -0.153016 0.448644
vn -0.891006 0.000336 0.453991
vn -0.809017 0.000000 0.587785
vn -0.587785 0.000000 0.809017
vn -0.309017 0.000000 0.951057
vn 0.000000 0.000000 1.000000
vn 0.309017 0.000000 0.951057
vn 0.587785 -0.000000 0.809017
vn 0.809017 0.000000 0.587785
vn 0.891006 -0.000336 0.453990
vn -0.880514 0.153015 0.448644
vn -0.798514 0.154547 0.581799
vn -0.579647 0.154547 0.800078
vn -0.304039 0.154547 0.940040
vn 0.001330 0.154547 0.987985
vn 0.306569 0.154547 0.939218
vn 0.581799 0.154547 0.798514
vn 0.800078 0.154547 0.579647
vn 0.880604 0.152358 0.448690
vn -0.849323 0.302284 0.432752
vn -0.768840 0.305397 0.561799
vn -0.557605 0.305397 0.771887
vn -0.291787 0.305397 0.906418
vn 0.002592 0.305397 0.952222
vn 0.296718 0.305397 0.904815
vn 0.561799 0.305397 0.768840
vn 0.771887 0.305397 0.557605
vn 0.849496 0.301671 0.432840
vn -0.798026 0.444769 0.406615
vn -0.720718 0.448937 0.528225
vn -0.522213 0.448937 0.725086
vn -0.272590 0.448937 0.850970
vn 0.003716 0.448937 0.893556
vn 0.279658 0.448937 0.848674
vn 0.528225 0.448937 0.720718
vn 0.725086 0.448937 0.522213
vn 0.798261 0.444238 0.406734
vn -0.762258 0.517799 0.388390
vn -0.687155 0.522494 0.504795
vn -0.497533 0.522494 0.692431
vn -0.259210 0.522493 0.812288
vn 0.004487 0.522493 0.852631
vn 0.267746 0.522493 0.809514
vn 0.504794 0.522493 0.687156
vn 0.692431 0.522493 0.497534
vn 0.762258 0.517799 0.388390
s 1
g pSphere1
f 82/82/82 83/83/83 91/91/84
f 91/91/84 83/83/83 92/92/85
f 83/83/83 84/84/86 92/92/85
f 92/92/85 84/84/86 93/93/87
f 84/84/86 85/85/88 93/93/87
f 93/93/87 85/85/88 94/94/89
f 85/85/88 86/86/90 94/94/89
f 94/94/89 86/86/90 95/95/91
f 86/86/90 87/87/92 95/95/91
f 95/95/91 87/87/92 96/96/93
f 87/87/92 88/88/94 96/96/93
f 96/96/93 88/88/94 97/97/95
f 88/88/94 89/89/96 97/97/95
f 97/97/95 89/89/96 98/98/97
f 89/89/96 90/90/98 98/98/97
f 98/98/97 90/90/98 99/99/99
f 91/91/84 92/92/85 100/100/100
f 100/100/100 92/92/85 101/101/101
f 92/92/85 93/93/87 101/101/101
f 101/101/101 93/93/87 102/102/102
f 93/93/87 94/94/89 102/102/102
f 102/102/102 94/94/89 103/103/103
f 94/94/89 95/95/91 103/103/103
f 103/103/103 95/95/91 104/104/104
f 95/95/91 96/96/93 104/104/104
f 104/104/104 96/96/93 105/105/105
f 96/96/93 97/97/95 105/105/105
f 105/105/105 97/97/95 106/106/106
f 97/97/95 98/98/97 106/106/106
f 106/106/106 98/98/97 107/107/107
f 98/98/97 99/99/99 107/107/107
f 107/107/107 99/99/99 108/108/108
f 100/100/100 101/101/101 109/109/109
f 109/109/109 101/101/101 110/110/110
f 101/101/101 102/102/102 110/110/110
f 110/110/110 102/102/102 111/111/111
f 102/102/102 103/103/103 111/111/111
f 111/111/111 103/103/103 112/112/112
f 103/103/103 104/104/104 112/112/112
f 112/112/112 104/104/104 113/113/113
f 104/104/104 105/105/105 113/113/113
f 113/113/113 105/105/105 114/114/114
f 105/105/105 106/106/106 114/114/114
f 114/114/114 106/106/106 115/115/115
f 106/106/106 107/107/107 115/115/115
f 115/115/115 107/107/107 116/116/116
f 107/107/107 108/108/108 116/116/116
f 116/116/116 108/108/108 117/117/117
f 109/109/109 110/110/110 118/118/118
f 118/118/118 110/110/110 119/119/119
f 110/110/110 111/111/111 119/119/119
f 119/119/119 111/111/111 120/120/120
f 111/111/111 112/112/112 120/120/120
f 120/120/120 112/112/112 121/121/121
f 112/112/112 113/113/113 121/121/121
f 121/121/121 113/113/113 122/122/122
f 113/113/113 114/114/114 122/122/122
f 122/122/122 114/114/114 123/123/123
f 114/114/114 115/115/115 123/123/123
f 123/123/123 115/115/115 124/124/124
f 115/115/115 116/116/116 124/124/124
f 124/124/124 116/116/116 125/125/125
f 116/116/116 117/117/117 125/125/125
f 125/125/125 117/117/117 126/126/126
f 118/118/118 119/119/119 127/127/127
f 127/127/127 119/119/119 128/128/128
f 119/119/119 120/120/120 128/128/128
f 128/128/128 120/120/120 129/129/129
f 120/120/120 121/121/121 129/129/129
f 129/129/129 121/121/121 130/130/130
f 121/121/121 122/122/122 130/130/130
f 130/130/130 122/122/122 131/131/131
f 122/122/122 123/123/123 131/131/131
f 131/131/131 123/123/123 132/132/132
f 123/123/123 124/124/124 132/132/132
f 132/132/132 124/124/124 133/133/133
f 124/124/124 125/125/125 133/133/133
f 133/133/133 125/125/125 134/134/134
f 125/125/125 126/126/126 134/134/134
f 134/134/134 126/126/126 135/135/135
f 127/127/127 128/128/128 136/136/136
f 136/136/136 128/128/128 137/137/137
f 128/128/128 129/129/129 137/137/137
f 137/137/137 129/129/129 138/138/138
f 129/129/129 130/130/130 138/138/138
f 138/138/138 130/130/130 139/139/139
f 130/130/130 131/131/131 139/139/139
f 139/139/139 131/131/131 140/140/140
f 131/131/131 132/132/132 140/140/140
f 140/140/140 132/132/132 141/141/141
f 132/132/132 133/133/133 141/141/141
f 141/141/141 133/133/133 142/142/142
f 133/133/133 134/134/134 142/142/142
f 142/142/142 134/134/134 143/143/143
f 134/134/134 135/135/135 143/143/143
f 143/143/143 135/135/135 144/144/144
f 136/136/136 137/137/137 145/145/145
f 145/145/145 137/137/137 146/146/146
f 137/137/137 138/138/138 146/146/146
f 146/146/146 138/138/138 147/147/147
f 138/138/138 139/139/139 147/147/147
f 147/147/147 139/139/139 148/148/148
f 139/139/139 140/140/140 148/148/148
f 148/148/148 140/140/140 149/149/149
f 140/140/140 141/141/141 149/149/149
f 149/149/149 141/141/141 150/150/150
f 141/141/141 142/142/142 150/150/150
f 150/150/150 142/142/142 151/151/151
f 142/142/142 143/143/143 151/151/151
f 151/151/151 143/143/143 152/152/152
f 143/143/143 144/144/144 152/152/152
f 152/152/152 144/144/144 153/153/153
f 145/145/145 146/146/146 154/154/154
f 154/154/154 146/146/146 155/155/155
f 146/146/146 147/147/147 155/155/155
f 155/155/155 147/147/147 156/156/156
f 147/147/147 148/148/148 156/156/156
f 156/156/156 148/148/148 157/157/157
f 148/148/148 149/149/149 157/157/157
f 157/157/157 149/149/149 158/158/158
f 149/149/149 150/150/150 158/158/158
f 158/158/158 150/150/150 159/159/159
f 150/150/150 151/151/151 159/159/159
f 159/159/159 151/151/151 160/160/160
f 151/151/151 152/152/152 160/160/160
f 160/160/160 152/152/152 161/161/161
f 152/152/152 153/153/153 161/161/161
f 161/161/161 153/153/153 162/162/162